<?xml version="1.0" encoding="utf-8"?>
<!-- Generator: Adobe Illustrator 16.0.4, SVG Export Plug-In . SVG Version: 6.00 Build 0)  -->
<!DOCTYPE svg PUBLIC "-//W3C//DTD SVG 1.1//EN" "http://www.w3.org/Graphics/SVG/1.1/DTD/svg11.dtd">
<svg version="1.1" id="Capa_1" xmlns="http://www.w3.org/2000/svg" xmlns:xlink="http://www.w3.org/1999/xlink" x="0px" y="0px"
	 width="64px" height="64px" viewBox="0 0 64 64" enable-background="new 0 0 64 64" xml:space="preserve">
<g>
	<path d="M14.221,25.035h7.883c0.935,0,1.694-0.761,1.694-1.695V12.345h17.359v10.153h1.797V12.242c0-0.935-0.761-1.694-1.695-1.694
		H23.696c-0.719,0-1.558,0.417-1.994,0.993L13.084,22.96c-0.383,0.508-0.66,1.338-0.66,1.974v23.548c0,0.935,0.76,1.694,1.694,1.694
		h21.104V48.38H14.221V25.035z M22.002,14.128v9.11h-6.876L22.002,14.128z"/>
	<path d="M39.311,45.846c-1.851,0-3.191,1.406-3.191,3.346c0,1.887,1.355,3.309,3.152,3.309c1.871,0,3.23-1.391,3.23-3.309
		C42.502,47.252,41.16,45.846,39.311,45.846z M39.271,50.702c-0.799,0-1.356-0.621-1.356-1.511c0-0.928,0.562-1.551,1.396-1.551
		c0.873,0,1.395,0.58,1.395,1.551C40.705,50.123,40.154,50.702,39.271,50.702z"/>
	<path d="M39.895,23.612c-1.845,0-3.824,0.466-5.297,1.245c-0.785,0.415-1.145,1.413-0.818,2.271l0.365,0.96
		c0.321,0.846,1.379,1.232,2.213,0.799c0.814-0.426,1.873-0.68,2.822-0.68c1.863,0.029,2.809,0.852,2.809,2.443
		c0,1.499-0.92,2.875-2.512,4.75c-1.988,2.384-2.892,4.938-2.615,7.367l0.037,0.506c0.06,0.761,0.804,1.334,1.73,1.334h1.479
		c0.533,0,1.016-0.19,1.322-0.522c0.239-0.261,0.357-0.592,0.33-0.935l-0.037-0.467c-0.104-1.802,0.494-3.332,2.006-5.121
		c2.015-2.391,3.555-4.448,3.555-7.34C47.282,26.934,44.998,23.612,39.895,23.612z M42.355,36.407
		c-1.809,2.138-2.557,4.106-2.424,6.405h-1.267L38.648,42.6c-0.223-1.957,0.539-4.048,2.199-6.041
		c1.858-2.187,2.936-3.854,2.936-5.907c0-2.571-1.756-4.196-4.581-4.24h-0.009c-1.164,0-2.447,0.293-3.459,0.807l-0.299-0.773
		c1.228-0.648,2.895-1.036,4.457-1.036c4.123,0,5.592,2.487,5.592,4.815C45.484,32.516,44.188,34.232,42.355,36.407z"/>
</g>
</svg>
