<svg version="1.1" id="Capa_1" xmlns="http://www.w3.org/2000/svg" xmlns:xlink="http://www.w3.org/1999/xlink" x="0px" y="0px" width="337.152px" height="338.356px" viewBox="0 0 337.152 338.356" enable-background="new 0 0 337.152 338.356" xml:space="preserve" fill="#00B3E3"><g><path  d="M15.849,163.098c0.74,0.032,1.37-0.542,1.404-1.285c0.032-0.743-0.544-1.37-1.285-1.402c-0.746-0.032-1.374,0.542-1.403,1.284C14.532,162.437,15.105,163.065,15.849,163.098z"/><circle  cx="15.763" cy="168.406" r="1.345"/><path  d="M28.616,226.257c-0.285-0.687-1.071-1.012-1.758-0.729c-0.686,0.288-1.015,1.071-0.727,1.758c0.284,0.687,1.069,1.014,1.756,0.728C28.572,227.73,28.901,226.944,28.616,226.257z"/><circle  cx="16.344" cy="181.7" r="1.346"/><circle  cx="22.823" cy="214.269" r="1.346"/><path  d="M26.226,220.109c-0.255-0.696-1.026-1.056-1.725-0.804c-0.698,0.257-1.063,1.025-0.804,1.724c0.252,0.698,1.024,1.058,1.724,0.805C26.117,221.58,26.479,220.809,26.226,220.109z"/><circle  cx="20.961" cy="207.88" r="1.346"/><path  d="M17.244,189.646c0.733-0.096,1.254-0.772,1.16-1.507c-0.1-0.736-0.774-1.256-1.513-1.159c-0.737,0.099-1.256,0.771-1.157,1.508C15.831,189.226,16.506,189.744,17.244,189.646z"/><path  d="M17.253,175.001c-0.035-0.741-0.663-1.317-1.405-1.286c-0.743,0.034-1.319,0.661-1.285,1.403c0.034,0.741,0.659,1.317,1.403,1.284C16.707,176.37,17.284,175.744,17.253,175.001z"/><path  d="M79.974,55.832l6.204,8.291c0.236,0.315,0.227,0.497-0.233,0.928l0.193,0.261l6.729-5.036c0.427-0.318,0.618-0.374,0.882-0.137l0.261-0.196l-1.667-2.23l-0.261,0.193c0.151,0.324,0.045,0.489-0.384,0.808l-4.274,3.2l-2.002-2.678l2.378-1.778c0.428-0.321,0.619-0.375,0.854-0.176l0.261-0.195l-1.641-2.194l-0.261,0.195c0.154,0.321,0.047,0.488-0.38,0.806l-2.378,1.781l-1.81-2.415l4.014-3.005c0.429-0.32,0.618-0.376,0.855-0.176l0.261-0.193l-1.641-2.194l-0.261,0.194c0.154,0.319,0.046,0.488-0.381,0.808l-6.506,4.868l0.195,0.26C79.56,55.473,79.738,55.516,79.974,55.832z"/><path  d="M16.226,156.454c0.738,0.066,1.391-0.482,1.458-1.222c0.062-0.741-0.485-1.392-1.225-1.458c-0.741-0.065-1.393,0.481-1.457,1.222C14.938,155.736,15.484,156.39,16.226,156.454z"/><path  d="M18.313,196.215c0.729-0.129,1.22-0.825,1.093-1.557c-0.131-0.732-0.828-1.221-1.561-1.092c-0.732,0.131-1.221,0.826-1.09,1.557C16.884,195.854,17.58,196.344,18.313,196.215z"/><path  d="M20.693,201.126c-0.164-0.726-0.88-1.184-1.607-1.022c-0.725,0.163-1.183,0.879-1.02,1.604c0.159,0.725,0.875,1.184,1.603,1.023C20.393,202.57,20.853,201.852,20.693,201.126z"/><circle  cx="63.787" cy="236.253" r="1.347"/><circle  cx="71.458" cy="90.006" r="1.347"/><circle  cx="75.694" cy="85.047" r="1.346"/><path  d="M42.574,254.784c-0.608,0.429-0.76,1.264-0.329,1.871c0.426,0.609,1.262,0.759,1.873,0.332c0.606-0.426,0.757-1.265,0.331-1.874C44.022,254.506,43.185,254.359,42.574,254.784z"/><path  d="M66.423,66.786l-2.335,2.294l0.227,0.231c0.249-0.146,0.641,0.022,1.067,0.255c2.678,1.467,9.495,4.664,9.691,4.862c0.13,0.132,0.095,0.427-0.136,0.657l0.226,0.23l2.75-2.702l-0.227-0.231c-0.233,0.227-0.462,0.258-0.61,0.11c-0.439-0.448-3.132-6.038-4.874-9.6c-0.256-0.526-0.387-0.758-0.203-1.133l-0.229-0.232l-2.236,2.198l0.23,0.231c0.362-0.225,0.494-0.257,0.589-0.158c0.246,0.249,2.649,5.179,4.037,7.848l-0.033,0.033c-2.433-1.351-7.454-3.709-7.778-4.04c-0.148-0.15-0.145-0.314,0.07-0.624L66.423,66.786z"/><circle  cx="71.452" cy="246.803" r="1.348"/><path  d="M46.348,244.732l4.442,6.805l0.271-0.18c-0.31-0.601-0.257-0.775,0.074-0.99l8.67-5.663c0.329-0.216,0.509-0.193,0.91,0.292l0.273-0.177l-4.595-7.035c-0.293-0.449-0.335-0.641-0.083-0.889l-0.178-0.273l-2.332,1.522l0.178,0.273c0.329-0.135,0.49-0.017,0.781,0.433l2.919,4.469l-2.798,1.826l-1.625-2.485c-0.292-0.448-0.334-0.642-0.121-0.864l-0.178-0.271l-2.292,1.496l0.177,0.274c0.332-0.134,0.491-0.018,0.781,0.43l1.626,2.487l-2.527,1.652l-2.744-4.201c-0.292-0.445-0.334-0.638-0.12-0.863l-0.178-0.271l-2.292,1.499l0.177,0.271C45.895,244.167,46.056,244.285,46.348,244.732z"/><circle  cx="89.874" cy="71.591" r="1.346"/><circle  cx="70.241" cy="51.572" r="1.345"/><circle  cx="84.915" cy="75.827" r="1.346"/><path  d="M76.25,48.474c0.587-0.453,0.698-1.296,0.248-1.886c-0.456-0.591-1.298-0.703-1.888-0.249c-0.589,0.452-0.701,1.296-0.248,1.887C74.815,48.815,75.659,48.927,76.25,48.474z"/><path  d="M48.284,201.948c0.719-0.193,1.144-0.931,0.951-1.647c-0.192-0.722-0.93-1.147-1.646-0.954c-0.721,0.192-1.143,0.93-0.952,1.648C46.83,201.715,47.566,202.14,48.284,201.948z"/><circle  cx="63.792" cy="100.555" r="1.346"/><path  d="M51.358,229.767l0.295-0.137l-1.314-2.868l-0.295,0.136c0.153,0.389,0.085,0.572-0.191,0.698l-7.723,3.539l-0.021-0.044c2.495-2.188,4.67-4.794,6.953-7.115l-0.145-0.317c-3.331,0.199-6.756,0.135-10.083,0.51l-0.02-0.042l7.809-3.578c0.273-0.127,0.46-0.057,0.653,0.313l0.296-0.136l-1.354-2.955l-0.295,0.136c0.144,0.369,0.084,0.575-0.191,0.7l-9.664,4.428c-0.274,0.127-0.468,0.036-0.636-0.269l-0.293,0.134l1.69,3.692l0.296-0.136c-0.043-0.26-0.006-0.405,0.183-0.493c0.295-0.134,4.171-0.149,7.417-0.307c-0.957,0.924-4.769,5.198-5.127,5.361c-0.148,0.067-0.28,0-0.462-0.173l-0.294,0.136l1.712,3.737l0.296-0.137c-0.116-0.306-0.046-0.489,0.227-0.615l9.666-4.429C51.016,229.411,51.21,229.502,51.358,229.767z"/><circle  cx="65.239" cy="55.959" r="1.345"/><path  d="M61.383,61.512c0.523-0.526,0.523-1.377,0-1.901c-0.528-0.527-1.378-0.527-1.902-0.001c-0.528,0.525-0.528,1.377,0,1.903C60.007,62.037,60.857,62.038,61.383,61.512z"/><circle  cx="67.487" cy="95.18" r="1.346"/><path  d="M55.808,79.316c0.478-0.479,0.659-0.482,0.964-0.233l8.052,6.504c0.31,0.248,0.344,0.426-0.024,0.993l0.253,0.206l2.451-3.035l-0.253-0.206c-0.477,0.482-0.659,0.485-0.966,0.236l-8.053-6.506c-0.308-0.247-0.342-0.425,0.025-0.993l-0.251-0.204l-2.452,3.034L55.808,79.316z"/><circle  cx="67.482" cy="241.629" r="1.347"/><path  d="M38.926,249.219c-0.627,0.403-0.815,1.229-0.41,1.855c0.399,0.626,1.228,0.813,1.856,0.414c0.625-0.398,0.811-1.231,0.411-1.858C40.384,249.004,39.555,248.82,38.926,249.219z"/><path  d="M29.484,231.644c-0.672,0.316-0.967,1.113-0.649,1.785c0.312,0.676,1.111,0.968,1.787,0.652c0.672-0.313,0.966-1.113,0.651-1.788C30.958,231.621,30.158,231.33,29.484,231.644z"/><path  d="M35.524,243.499c-0.645,0.375-0.867,1.194-0.492,1.836c0.371,0.645,1.191,0.867,1.837,0.493c0.642-0.369,0.864-1.191,0.492-1.837C36.991,243.349,36.169,243.13,35.524,243.499z"/><path  d="M32.376,237.638c-0.659,0.346-0.919,1.155-0.572,1.813c0.343,0.657,1.154,0.916,1.814,0.572c0.657-0.343,0.916-1.154,0.573-1.814C33.845,237.551,33.034,237.295,32.376,237.638z"/><circle  cx="80.183" cy="80.316" r="1.346"/><path  d="M36.692,173.547l0.323-0.009l-0.088-3.898l-0.326,0.008c-0.055,0.674-0.191,0.795-0.585,0.803l-10.351,0.238c-0.396,0.009-0.537-0.104-0.624-0.777l-0.324,0.009l0.089,3.9l0.324-0.009c0.055-0.674,0.191-0.793,0.587-0.802l10.351-0.237C36.464,172.764,36.605,172.877,36.692,173.547z"/><path  d="M26.897,194.123l0.32-0.045c0.007-0.447,0.128-0.583,0.52-0.638l10.252-1.461c0.39-0.056,0.544,0.041,0.667,0.421l0.323-0.046l-0.476-3.356l-0.322,0.048c-0.007,0.446-0.129,0.581-0.52,0.637l-4.092,0.582l-0.297-2.093l3.403-2.43c0.45-0.322,0.56-0.362,0.676-0.378c0.206-0.029,0.304,0.168,0.363,0.417l0.322-0.047l-0.483-3.4l-0.322,0.045c-0.004,0.473-0.377,0.642-1.34,1.293l-3.239,2.292c-0.642-1.693-2.049-2.36-3.794-2.112c-2.068,0.295-3.139,1.996-2.782,4.523L26.897,194.123z M29.37,186.125c1.011-0.145,1.694,0.369,1.894,1.771l0.376,2.642l-3.218,0.459l-0.377-2.643C27.844,186.952,28.358,186.271,29.37,186.125z"/><path  d="M50.205,208.182c0.705-0.231,1.092-0.988,0.863-1.695c-0.229-0.709-0.99-1.097-1.696-0.867c-0.708,0.232-1.092,0.989-0.863,1.697C48.74,208.024,49.497,208.41,50.205,208.182z"/><path  d="M48.511,129.493c-0.229,0.707,0.157,1.465,0.864,1.696c0.707,0.229,1.466-0.157,1.695-0.864c0.233-0.708-0.157-1.467-0.863-1.697C49.499,128.398,48.742,128.785,48.511,129.493z"/><circle  cx="51.968" cy="123.76" r="1.346"/><polygon  points="24.979,209.721 29.412,211.027 28.896,209.2 24.143,206.767 "/><circle  cx="51.966" cy="213.049" r="1.347"/><path  d="M55.01,220.306c0.677-0.305,0.984-1.099,0.681-1.777c-0.302-0.681-1.098-0.986-1.776-0.686c-0.681,0.304-0.984,1.1-0.683,1.779C53.536,220.302,54.33,220.606,55.01,220.306z"/><path  d="M24.961,159.222c-0.049,0.532-0.135,0.713-0.488,0.75l-0.032,0.322l2.892,0.261l0.03-0.322c-0.456-0.11-0.509-0.302-0.461-0.834l0.251-2.774l9.295,0.839c0.393,0.035,0.522,0.164,0.56,0.516l0.322,0.03l0.303-3.33l-0.327-0.03c-0.108,0.434-0.255,0.537-0.65,0.501l-9.296-0.841l0.25-2.773c0.049-0.535,0.135-0.711,0.603-0.737l0.029-0.325l-2.89-0.262l-0.029,0.324c0.342,0.102,0.394,0.291,0.347,0.824L24.961,159.222z"/><path  d="M28.447,135.633l-0.825,3.79l0.318,0.068c0.133-0.399,0.245-0.468,0.381-0.44c0.182,0.04,0.348,0.148,0.726,0.374l8.99,5.424c0.166,0.108,0.483,0.295,0.441,0.595l0.318,0.069l0.653-2.995l-0.318-0.07c-0.108,0.383-0.337,0.452-0.541,0.407c-0.091-0.02-0.244-0.076-0.389-0.178l-1.744-1.046l0.888-4.083l2.246-0.271c0.173-0.034,0.292-0.032,0.405-0.006c0.16,0.034,0.179,0.157,0.161,0.461l0.318,0.069l0.67-3.084l-0.316-0.07c-0.1,0.239-0.21,0.313-0.647,0.359l-10.147,1.187c-0.655,0.071-0.852,0.102-0.988,0.071c-0.229-0.05-0.333-0.215-0.282-0.56L28.447,135.633z M30.554,138.184l5.091-0.459l-0.657,3.014l-4.443-2.51L30.554,138.184z"/><path  d="M43.037,155.242c-0.076,0.74,0.459,1.401,1.2,1.48c0.735,0.076,1.399-0.459,1.477-1.2c0.08-0.74-0.459-1.401-1.197-1.479C43.775,153.966,43.115,154.502,43.037,155.242z"/><circle  cx="43.863" cy="174.925" r="1.348"/><circle  cx="43.693" cy="168.404" r="1.347"/><circle  cx="44.375" cy="181.426" r="1.346"/><path  d="M45.437,189.224c0.734-0.118,1.234-0.808,1.118-1.541c-0.116-0.735-0.806-1.235-1.537-1.121c-0.737,0.117-1.236,0.808-1.12,1.541C44.014,188.837,44.703,189.337,45.437,189.224z"/><path  d="M46.462,260.185c-0.589,0.457-0.704,1.295-0.249,1.885c0.453,0.589,1.295,0.703,1.887,0.25c0.587-0.452,0.702-1.297,0.248-1.887C47.895,259.845,47.053,259.734,46.462,260.185z"/><circle  cx="47.939" cy="136.161" r="1.345"/><circle  cx="46.416" cy="142.504" r="1.346"/><circle  cx="45.227" cy="148.916" r="1.345"/><path  d="M32.379,212.274l9.947-2.868c0.382-0.108,0.546-0.034,0.787,0.548l0.312-0.09l-2.326-8.074c-0.148-0.512-0.132-0.71,0.182-0.874l-0.091-0.313l-2.674,0.771l0.089,0.313c0.354-0.029,0.473,0.131,0.62,0.643l1.479,5.131l-3.213,0.926l-0.824-2.856c-0.146-0.512-0.13-0.708,0.14-0.86l-0.091-0.312l-2.631,0.758l0.091,0.313c0.354-0.029,0.471,0.128,0.62,0.642l0.821,2.855l-2.9,0.836l-1.387-4.819c-0.149-0.512-0.133-0.71,0.136-0.86l-0.088-0.312l-2.632,0.758l0.091,0.312c0.353-0.028,0.471,0.131,0.619,0.644l2.25,7.805l0.312-0.087C31.899,212.532,31.999,212.382,32.379,212.274z"/><path  d="M16.891,149.832c0.735,0.097,1.413-0.42,1.513-1.156c0.094-0.737-0.424-1.412-1.162-1.51c-0.738-0.097-1.412,0.421-1.508,1.159C15.637,149.059,16.154,149.736,16.891,149.832z"/><circle  cx="43.864" cy="161.884" r="1.346"/><circle  cx="57.273" cy="111.848" r="1.347"/><circle  cx="22.821" cy="122.544" r="1.345"/><circle  cx="19.377" cy="135.396" r="1.345"/><path  d="M20.611,130.23c0.716,0.194,1.454-0.231,1.649-0.95c0.19-0.717-0.236-1.454-0.954-1.647c-0.719-0.192-1.457,0.234-1.646,0.952C19.468,129.301,19.892,130.039,20.611,130.23z"/><circle  cx="51.443" cy="70.371" r="1.346"/><path  d="M48.107,90.09c0.271-0.297,0.449-0.321,0.783-0.112l6.179,3.872l-0.025,0.04c-1.009-0.358-8.434-0.271-8.77-0.481c-0.117-0.074-0.107-0.178,0.044-0.464l-0.275-0.173l-2.032,3.247l0.275,0.172c0.231-0.239,0.411-0.262,0.744-0.054l8.775,5.501c0.335,0.208,0.39,0.379,0.227,0.772l0.276,0.172l1.677-2.675l-0.275-0.172c-0.257,0.276-0.435,0.3-0.77,0.09l-6.806-4.265l0.023-0.04c2.185,0.494,9.199,0.231,9.535,0.439c0.195,0.125,0.125,0.327,0.04,0.548l0.276,0.173l1.799-2.874l-0.274-0.17c-0.218,0.218-0.339,0.28-0.733,0.031l-8.774-5.499c-0.335-0.209-0.39-0.381-0.241-0.752l-0.276-0.173l-1.676,2.676L48.107,90.09z"/><circle  cx="55.83" cy="65.367" r="1.346"/><circle  cx="18.079" cy="141.922" r="1.345"/><path  d="M61.059,104.95c-0.646-0.372-1.467-0.15-1.84,0.493c-0.371,0.645-0.148,1.466,0.492,1.839c0.646,0.37,1.467,0.15,1.84-0.493S61.701,105.321,61.059,104.95z"/><circle  cx="60.381" cy="230.693" r="1.348"/><circle  cx="30.05" cy="103.95" r="1.345"/><circle  cx="36.195" cy="92.148" r="1.345"/><circle  cx="43.343" cy="80.927" r="1.345"/><circle  cx="39.646" cy="86.459" r="1.345"/><circle  cx="54.464" cy="117.735" r="1.347"/><circle  cx="24.959" cy="116.242" r="1.344"/><path  d="M46.459,76.626c0.589,0.454,1.432,0.343,1.887-0.247c0.449-0.59,0.34-1.434-0.249-1.886c-0.592-0.453-1.435-0.342-1.886,0.248C45.758,75.331,45.869,76.175,46.459,76.626z"/><circle  cx="57.269" cy="224.961" r="1.347"/><path  d="M26.855,111.283c0.688,0.284,1.475-0.04,1.76-0.726c0.282-0.688-0.043-1.474-0.729-1.759c-0.688-0.284-1.476,0.042-1.759,0.728C25.843,110.212,26.17,110.999,26.855,111.283z"/><circle  cx="32.994" cy="97.981" r="1.345"/><path  d="M35.916,114.763l6.246,2.757c2.548,1.126,4.758,0.607,6.157-2.559c1.397-3.164,0.294-5.151-2.254-6.275l-6.245-2.759c-0.362-0.159-0.442-0.323-0.309-0.797l-0.299-0.132l-1.329,3.017l0.295,0.131c0.243-0.375,0.418-0.426,0.777-0.265l6.289,2.776c1.442,0.639,2.012,1.881,1.328,3.431c-0.685,1.551-1.986,1.964-3.43,1.328l-6.287-2.778c-0.361-0.159-0.443-0.32-0.328-0.753l-0.299-0.131l-1.425,3.229l0.297,0.131C35.38,114.653,35.554,114.602,35.916,114.763z"/><circle  cx="46.414" cy="194.306" r="1.347"/><path  d="M311.726,161.285l-0.325,0.005c-0.064,0.443-0.2,0.56-0.596,0.567l-10.353,0.167c-0.395,0.007-0.535-0.106-0.611-0.547l-0.327,0.004l0.077,4.643c0.062,3.946,2.093,6.05,6.201,5.984c3.413-0.055,6.078-1.862,6.016-5.716L311.726,161.285z M305.755,169.785c-3.178,0.053-4.172-1.023-4.222-4.109l-0.023-1.345l8.311-0.135l0.021,1.346C309.893,168.629,308.935,169.735,305.755,169.785z"/><path  d="M290.09,76.623c0.594-0.459,0.708-1.297,0.248-1.888c-0.449-0.589-1.291-0.702-1.883-0.248c-0.588,0.452-0.7,1.298-0.248,1.887C288.66,76.961,289.505,77.071,290.09,76.623z"/><path  d="M276.825,229.534c-0.643-0.368-1.464-0.15-1.835,0.495c-0.376,0.643-0.152,1.467,0.49,1.839c0.643,0.372,1.467,0.148,1.84-0.495C277.692,230.729,277.47,229.908,276.825,229.534z"/><path  d="M269.484,83.631l-0.259,0.199l1.921,2.507l0.259-0.198c-0.173-0.337-0.132-0.515,0.182-0.754l6.375-4.883l0.029,0.037c-1.227,1.874-3.434,8.536-3.746,8.775c-0.187,0.14-0.35,0.003-0.528-0.152l-0.257,0.199l2.057,2.691l0.259-0.2c-0.127-0.281-0.144-0.416,0.224-0.698l8.222-6.294c0.315-0.24,0.496-0.233,0.789,0.037l0.258-0.195l-1.92-2.508l-0.259,0.197c0.186,0.355,0.146,0.532-0.168,0.773l-5.786,4.433l-0.027-0.038c0.688-0.819,3.204-7.805,3.516-8.044c0.111-0.085,0.206-0.039,0.421,0.206l0.259-0.2l-2.33-3.04l-0.259,0.197c0.142,0.3,0.104,0.477-0.21,0.718l-8.218,6.294C269.974,83.931,269.791,83.923,269.484,83.631z"/><path  d="M277.324,105.449c-0.374-0.642-1.191-0.86-1.84-0.491c-0.64,0.375-0.864,1.193-0.49,1.839c0.368,0.649,1.194,0.866,1.838,0.494C277.475,106.92,277.698,106.096,277.324,105.449z"/><path  d="M279.875,223.769c-0.662-0.333-1.472-0.074-1.808,0.592c-0.342,0.66-0.075,1.471,0.586,1.811c0.664,0.336,1.475,0.071,1.813-0.591C280.804,224.915,280.539,224.108,279.875,223.769z"/><path  d="M280.471,111.244c-0.341-0.662-1.149-0.923-1.813-0.588c-0.661,0.341-0.927,1.147-0.587,1.812c0.333,0.667,1.147,0.927,1.811,0.589S280.808,111.909,280.471,111.244z"/><path  d="M285.971,71.397c0.575-0.484,0.651-1.326,0.166-1.897c-0.475-0.568-1.319-0.645-1.892-0.165c-0.568,0.478-0.641,1.328-0.165,1.895C284.557,71.797,285.407,71.869,285.971,71.397z"/><path  d="M248.741,51.287l2.245,1.653l-5.538,7.514c-0.232,0.316-0.407,0.361-0.732,0.209l-0.19,0.263l2.69,1.981l0.192-0.26c-0.315-0.318-0.326-0.5-0.089-0.818l5.535-7.512l2.242,1.653c0.429,0.318,0.538,0.483,0.317,0.898l0.264,0.192l1.721-2.336l-0.261-0.193c-0.265,0.241-0.454,0.185-0.885-0.129l-6.354-4.683c-0.431-0.316-0.538-0.483-0.387-0.805l-0.263-0.194l-1.721,2.337l0.263,0.193C248.121,50.917,248.313,50.972,248.741,51.287z"/><path  d="M304.177,99.17c0.665-0.349,0.922-1.155,0.573-1.815c-0.341-0.66-1.149-0.917-1.811-0.572c-0.659,0.344-0.916,1.157-0.572,1.814C302.71,99.255,303.524,99.509,304.177,99.17z"/><path  d="M307.941,110.55c0.284,0.685,1.073,1.009,1.753,0.728c0.693-0.289,1.019-1.069,0.729-1.759c-0.284-0.685-1.065-1.012-1.756-0.727C307.983,109.078,307.657,109.865,307.941,110.55z"/><path  d="M301.029,93.308c0.649-0.377,0.87-1.192,0.493-1.839c-0.371-0.643-1.188-0.864-1.835-0.492c-0.642,0.373-0.865,1.196-0.492,1.838C299.566,93.458,300.391,93.676,301.029,93.308z"/><path  d="M297.625,87.588c0.633-0.405,0.82-1.229,0.417-1.858c-0.401-0.627-1.228-0.813-1.857-0.412c-0.625,0.402-0.81,1.234-0.413,1.859C296.171,87.802,297.004,87.984,297.625,87.588z"/><path  d="M293.979,82.024c0.613-0.433,0.761-1.266,0.331-1.875c-0.425-0.608-1.259-0.759-1.872-0.33c-0.607,0.427-0.755,1.266-0.329,1.874C292.534,82.3,293.374,82.446,293.979,82.024z"/><path  d="M301.627,115.798l0.303-0.111l-1.433-3.854l-0.306,0.113c0.093,0.313,0.013,0.492-0.272,0.598l-9.968,3.705c-0.282,0.105-0.469,0.001-0.596-0.273l-0.305,0.114l1.101,2.959l0.305-0.113c-0.125-0.399-0.041-0.579,0.242-0.684l7.964-2.96l0.017,0.042c-2.65,2.001-5.014,4.441-7.459,6.588l0.123,0.325c3.335,0.049,6.749,0.364,10.092,0.236l0.017,0.042l-8.053,2.995c-0.282,0.105-0.462,0.023-0.628-0.359l-0.307,0.113l1.134,3.046l0.307-0.112c-0.117-0.38-0.043-0.58,0.238-0.684l9.967-3.707c0.284-0.105,0.473,0,0.615,0.315l0.305-0.113l-1.418-3.807l-0.303,0.112c0.023,0.265-0.023,0.405-0.22,0.478c-0.303,0.114-4.169-0.158-7.422-0.239c1.022-0.848,5.141-4.833,5.511-4.97C301.33,115.538,301.458,115.614,301.627,115.798z"/><path  d="M281.626,66.355c0.553-0.508,0.594-1.353,0.085-1.901c-0.502-0.547-1.347-0.587-1.898-0.083c-0.547,0.504-0.583,1.355-0.083,1.901C280.233,66.818,281.083,66.853,281.626,66.355z"/><path  d="M265.926,245.765c-0.575-0.466-1.422-0.379-1.889,0.2c-0.473,0.576-0.38,1.426,0.198,1.894c0.575,0.468,1.424,0.378,1.893-0.201C266.596,247.078,266.507,246.234,265.926,245.765z"/><path  d="M266.134,89.166c-0.47-0.577-1.313-0.665-1.894-0.198c-0.575,0.471-0.669,1.315-0.198,1.894c0.464,0.583,1.313,0.668,1.894,0.2C266.513,90.593,266.601,89.747,266.134,89.166z"/><path  d="M268.061,73.299c2.433-2.488,2.919-5.875,0.379-8.359c-2.538-2.48-5.916-1.917-8.347,0.572c-2.434,2.489-2.92,5.878-0.38,8.359C262.252,76.353,265.627,75.79,268.061,73.299z M261.752,67.136c1.931-1.977,3.85-2.244,5.327-0.801c1.478,1.444,1.251,3.367-0.678,5.341c-1.933,1.977-3.848,2.243-5.326,0.802C259.597,71.032,259.823,69.109,261.752,67.136z"/><path  d="M254.983,44.57c0.608,0.424,1.446,0.274,1.868-0.329c0.431-0.617,0.289-1.449-0.326-1.876c-0.609-0.426-1.444-0.28-1.873,0.33C254.227,43.305,254.377,44.145,254.983,44.57z"/><path  d="M249.498,40.906c0.627,0.397,1.459,0.21,1.854-0.41c0.403-0.633,0.225-1.461-0.41-1.859c-0.625-0.399-1.452-0.218-1.855,0.411C248.688,39.674,248.874,40.508,249.498,40.906z"/><path  d="M260.303,48.47c0.588,0.45,1.433,0.336,1.881-0.248c0.455-0.596,0.349-1.435-0.247-1.887c-0.587-0.452-1.429-0.343-1.883,0.249C259.603,47.174,259.713,48.018,260.303,48.47z"/><path  d="M259.951,84.053c-0.55,0.501-0.6,1.349-0.098,1.903c0.493,0.557,1.346,0.597,1.898,0.1c0.554-0.498,0.598-1.348,0.1-1.904C261.353,83.601,260.506,83.557,259.951,84.053z"/><path  d="M267.336,52.433c0.483-0.576,0.412-1.418-0.162-1.896c-0.569-0.477-1.412-0.406-1.895,0.165c-0.477,0.57-0.401,1.42,0.167,1.896C266.015,53.074,266.865,52.996,267.336,52.433z"/><path  d="M270.147,94.395c-0.439-0.6-1.276-0.732-1.883-0.295c-0.598,0.439-0.736,1.277-0.295,1.88c0.432,0.606,1.276,0.736,1.878,0.298C270.451,95.841,270.584,95,270.147,94.395z"/><path  d="M273.478,235.133c-0.621-0.402-1.455-0.229-1.86,0.397c-0.409,0.622-0.228,1.456,0.396,1.863c0.621,0.403,1.455,0.225,1.864-0.4C274.282,236.37,274.103,235.538,273.478,235.133z"/><path  d="M269.842,240.547c-0.599-0.434-1.441-0.305-1.879,0.3c-0.441,0.599-0.303,1.443,0.297,1.881c0.6,0.437,1.443,0.301,1.881-0.301C270.578,241.824,270.445,240.986,269.842,240.547z"/><polygon  points="274.971,63.843 272.8,61.667 268.294,62.692 269.636,64.037 "/><path  d="M273.88,99.829c-0.406-0.623-1.235-0.798-1.862-0.394c-0.62,0.407-0.802,1.237-0.395,1.862c0.4,0.627,1.238,0.802,1.863,0.397C274.108,101.289,274.286,100.456,273.88,99.829z"/><path  d="M272.303,56.865c0.505-0.555,0.473-1.4-0.082-1.901c-0.547-0.502-1.395-0.468-1.9,0.081c-0.5,0.55-0.462,1.401,0.084,1.902C270.953,57.446,271.806,57.406,272.303,56.865z"/><path  d="M277.069,61.508c0.529-0.532,0.533-1.377,0.001-1.903c-0.526-0.525-1.374-0.529-1.899-0.001c-0.524,0.526-0.524,1.379,0,1.904C275.694,62.031,276.546,62.028,277.069,61.508z"/><path  d="M307.069,105.164c0.679-0.318,0.969-1.114,0.651-1.789c-0.313-0.673-1.109-0.966-1.787-0.649c-0.67,0.314-0.963,1.115-0.649,1.788C305.599,105.184,306.4,105.474,307.069,105.164z"/><path  d="M299.748,217.117c1.811,0.588,3.78-0.063,4.702-2.888l1.719-5.274l-0.308-0.101c-0.217,0.442-0.388,0.509-0.761,0.387l-9.842-3.209c-0.375-0.121-0.473-0.275-0.386-0.76l-0.31-0.103l-1.094,3.355l0.31,0.102c0.216-0.442,0.384-0.51,0.759-0.388l3.93,1.282l-0.815,2.491C296.732,214.839,297.938,216.526,299.748,217.117z M299.636,212.221l0.683-2.096l3.089,1.006l-0.683,2.098c-0.504,1.544-1.131,2.047-2.258,1.681C299.343,214.543,299.133,213.767,299.636,212.221z"/><path  d="M311.295,181.8l-0.322-0.041c-0.154,0.66-0.304,0.757-0.697,0.709l-10.273-1.278c-0.391-0.052-0.515-0.183-0.506-0.813l-0.32-0.039l-1.04,8.338c-0.068,0.53-0.16,0.705-0.514,0.731l-0.041,0.321l2.767,0.345l0.041-0.321c-0.337-0.112-0.386-0.305-0.319-0.835l0.658-5.297l3.318,0.411l-0.367,2.95c-0.068,0.528-0.159,0.703-0.466,0.736l-0.041,0.322l2.72,0.339l0.039-0.323c-0.338-0.112-0.383-0.305-0.318-0.835l0.368-2.949l2.994,0.374l-0.621,4.976c-0.064,0.529-0.156,0.704-0.465,0.737l-0.04,0.322l2.72,0.34l0.038-0.323c-0.337-0.112-0.383-0.307-0.318-0.836L311.295,181.8z"/><path  d="M310.333,116.698c0.252,0.695,1.026,1.054,1.719,0.803c0.704-0.258,1.063-1.024,0.806-1.726c-0.253-0.697-1.02-1.059-1.722-0.802C310.438,115.228,310.076,116,310.333,116.698z"/><path  d="M292.745,173.589c-0.742-0.036-1.375,0.53-1.415,1.274c-0.043,0.743,0.532,1.377,1.274,1.416c0.742,0.04,1.375-0.533,1.414-1.275C294.057,174.26,293.488,173.63,292.745,173.589z"/><path  d="M292.022,154.054c-0.738,0.078-1.274,0.738-1.196,1.479c0.072,0.742,0.74,1.277,1.478,1.199c0.74-0.078,1.276-0.741,1.2-1.481C293.424,154.51,292.764,153.978,292.022,154.054z"/><path  d="M312.453,122.942c0.223,0.707,0.979,1.099,1.684,0.879c0.715-0.228,1.107-0.978,0.88-1.689c-0.223-0.708-0.973-1.101-1.688-0.877C312.623,121.479,312.227,122.236,312.453,122.942z"/><path  d="M292.846,167.066c-0.743,0.003-1.345,0.602-1.345,1.348c-0.005,0.745,0.603,1.346,1.345,1.346c0.743,0.001,1.346-0.603,1.347-1.347C294.192,167.668,293.589,167.069,292.846,167.066z"/><path  d="M292.605,160.549c-0.743,0.042-1.313,0.671-1.273,1.416c0.033,0.744,0.672,1.313,1.413,1.274c0.743-0.039,1.312-0.673,1.276-1.416C293.98,161.08,293.347,160.512,292.605,160.549z"/><path  d="M318.875,155.226c0.065,0.738,0.72,1.284,1.453,1.22c0.748-0.066,1.292-0.714,1.225-1.458c-0.063-0.739-0.711-1.286-1.457-1.22C319.358,153.833,318.808,154.487,318.875,155.226z"/><path  d="M320.794,167.056c-0.742,0-1.345,0.604-1.345,1.345c0.001,0.742,0.605,1.343,1.342,1.343c0.751,0,1.349-0.6,1.345-1.345C322.138,167.656,321.542,167.056,320.794,167.056z"/><circle  cx="80.797" cy="43.472" r="1.346"/><path  d="M319.307,161.807c0.033,0.74,0.661,1.313,1.398,1.283c0.749-0.034,1.323-0.657,1.287-1.402c-0.032-0.743-0.653-1.316-1.401-1.286C319.848,160.437,319.271,161.065,319.307,161.807z"/><path  d="M315.866,135.683c0.159,0.722,0.881,1.179,1.601,1.021c0.732-0.165,1.187-0.878,1.023-1.606c-0.16-0.725-0.873-1.183-1.603-1.021C316.163,134.238,315.703,134.957,315.866,135.683z"/><path  d="M319.314,147.159c-0.736,0.098-1.257,0.775-1.157,1.51c0.097,0.734,0.775,1.252,1.504,1.157c0.744-0.1,1.259-0.771,1.159-1.51C320.726,147.58,320.055,147.062,319.314,147.159z"/><path  d="M318.243,140.592c-0.729,0.129-1.221,0.828-1.092,1.559c0.132,0.729,0.829,1.217,1.557,1.089c0.74-0.131,1.225-0.824,1.092-1.559C319.671,140.95,318.979,140.461,318.243,140.592z"/><path  d="M314.298,129.274c0.192,0.716,0.931,1.141,1.642,0.95c0.725-0.194,1.15-0.927,0.953-1.648c-0.19-0.717-0.923-1.144-1.646-0.949C314.531,127.82,314.103,128.558,314.298,129.274z"/><path  d="M289.902,201.006c0.191-0.723-0.235-1.457-0.957-1.65c-0.714-0.19-1.453,0.233-1.645,0.952c-0.196,0.719,0.234,1.457,0.952,1.649C288.969,202.149,289.707,201.722,289.902,201.006z"/><path  d="M288.03,207.326c0.229-0.711-0.159-1.466-0.868-1.697c-0.706-0.228-1.465,0.155-1.694,0.865c-0.234,0.708,0.157,1.467,0.864,1.697C287.037,208.421,287.798,208.033,288.03,207.326z"/><path  d="M284.088,214.315c0.692,0.267,1.472-0.082,1.741-0.775c0.265-0.697-0.083-1.473-0.778-1.74c-0.691-0.264-1.472,0.079-1.738,0.776C283.042,213.27,283.395,214.049,284.088,214.315z"/><path  d="M281.527,220.313c0.678,0.302,1.474-0.004,1.778-0.683c0.302-0.683-0.003-1.475-0.686-1.778c-0.675-0.3-1.47,0.003-1.775,0.685C280.539,219.215,280.847,220.012,281.527,220.313z"/><path  d="M293.503,181.576c0.075-0.742-0.461-1.401-1.201-1.48c-0.738-0.075-1.4,0.458-1.478,1.199c-0.082,0.74,0.46,1.402,1.198,1.48C292.761,182.853,293.424,182.316,293.503,181.576z"/><path  d="M292.641,188.111c0.116-0.736-0.386-1.421-1.121-1.541c-0.733-0.113-1.423,0.385-1.538,1.122c-0.121,0.734,0.384,1.423,1.117,1.54C291.834,189.349,292.524,188.847,292.641,188.111z"/><path  d="M291.441,194.594c0.153-0.729-0.312-1.44-1.04-1.597c-0.725-0.151-1.44,0.31-1.595,1.037c-0.159,0.729,0.312,1.443,1.037,1.599C290.569,195.786,291.284,195.321,291.441,194.594z"/><path  d="M293.619,97.815c-1.736-3.1-5.133-3.515-8.173-1.814c-3.039,1.701-4.464,4.812-2.732,7.914c1.734,3.101,5.133,3.515,8.174,1.813C293.927,104.028,295.351,100.916,293.619,97.815z M284.419,102.962c-1.009-1.804-0.251-3.584,2.16-4.936c2.411-1.349,4.328-1.061,5.337,0.742c1.007,1.803,0.248,3.583-2.163,4.934C287.343,105.05,285.426,104.766,284.419,102.962z"/><path  d="M280.848,118.292c0.299,0.682,1.099,0.984,1.777,0.682c0.68-0.302,0.984-1.098,0.685-1.781c-0.306-0.678-1.099-0.981-1.781-0.681C280.853,116.819,280.544,117.609,280.848,118.292z"/><path  d="M288.253,134.87c-0.717,0.195-1.144,0.929-0.949,1.648c0.187,0.722,0.929,1.146,1.647,0.953c0.717-0.192,1.145-0.93,0.952-1.651C289.708,135.103,288.973,134.68,288.253,134.87z"/><path  d="M289.842,141.195c-0.725,0.157-1.189,0.867-1.034,1.598c0.149,0.729,0.869,1.192,1.596,1.037c0.727-0.153,1.191-0.869,1.039-1.598C291.286,141.504,290.572,141.043,289.842,141.195z"/><path  d="M287.167,131.198c0.707-0.23,1.093-0.989,0.865-1.699c-0.232-0.707-0.989-1.091-1.698-0.863c-0.705,0.232-1.094,0.986-0.863,1.696C285.696,131.043,286.459,131.428,287.167,131.198z"/><path  d="M285.832,123.286c-0.271-0.694-1.044-1.039-1.742-0.773c-0.691,0.269-1.042,1.042-0.774,1.74c0.263,0.697,1.045,1.041,1.741,0.775C285.75,124.761,286.097,123.982,285.832,123.286z"/><path  d="M291.102,147.595c-0.733,0.119-1.234,0.805-1.117,1.542c0.112,0.736,0.806,1.235,1.539,1.12c0.734-0.116,1.235-0.807,1.122-1.542C292.526,147.979,291.837,147.481,291.102,147.595z"/><path  d="M307.839,137.261c-0.181,0.038-0.377,0.008-0.814-0.042l-10.421-1.276c-0.196-0.029-0.56-0.072-0.645-0.363l-0.32,0.068l0.632,3l0.318-0.067c-0.061-0.391,0.121-0.549,0.326-0.592c0.092-0.019,0.256-0.029,0.429,0.006l2.021,0.239l0.857,4.091l-1.936,1.166c-0.146,0.1-0.255,0.148-0.369,0.172c-0.159,0.033-0.229-0.072-0.336-0.355l-0.318,0.063l0.65,3.091l0.318-0.065c-0.008-0.26,0.063-0.368,0.446-0.592l8.766-5.233c0.569-0.333,0.74-0.441,0.876-0.469c0.227-0.047,0.392,0.061,0.487,0.396l0.318-0.068l-0.799-3.792l-0.316,0.068C308.049,137.124,307.975,137.231,307.839,137.261z M301.701,141.466l-0.634-3.021l5.083,0.475l0.008,0.044L301.701,141.466z"/><circle  cx="135.264" cy="19.504" r="1.346"/><path  d="M142.022,19.53c0.733-0.13,1.224-0.826,1.094-1.559c-0.129-0.732-0.827-1.221-1.558-1.091c-0.734,0.128-1.223,0.828-1.094,1.558C140.596,19.17,141.293,19.66,142.022,19.53z"/><circle  cx="142.374" cy="46.552" r="1.345"/><circle  cx="136.032" cy="48.075" r="1.345"/><path  d="M255.409,79.371c-0.522,0.529-0.528,1.377,0.002,1.906c0.523,0.53,1.376,0.526,1.902,0c0.528-0.526,0.528-1.377,0-1.906C256.787,78.846,255.938,78.846,255.409,79.371z"/><circle  cx="129.778" cy="49.927" r="1.346"/><circle  cx="148.787" cy="45.365" r="1.346"/><circle  cx="155.254" cy="44.514" r="1.345"/><circle  cx="161.755" cy="44.002" r="1.345"/><circle  cx="161.622" cy="16.033" r="1.345"/><circle  cx="168.274" cy="43.831" r="1.345"/><path  d="M146.021,26.789l1.27,10.277c0.049,0.393-0.049,0.545-0.477,0.668l0.038,0.322l4.609-0.57c3.916-0.483,5.792-2.727,5.288-6.805c-0.418-3.388-2.5-5.845-6.327-5.372l-5.067,0.626l0.039,0.323C145.841,26.272,145.973,26.396,146.021,26.789z M149.788,27.353c3.064-0.378,4.266,0.456,4.657,3.612c0.391,3.157-0.573,4.259-3.636,4.638l-1.338,0.166l-1.02-8.25L149.788,27.353z"/><circle  cx="154.983" cy="16.469" r="1.345"/><circle  cx="128.801" cy="21.086" r="1.346"/><circle  cx="148.367" cy="17.193" r="1.346"/><path  d="M132.636,29.641l2.509,10.046c0.097,0.382,0.016,0.545-0.619,0.777l0.08,0.315l3.78-0.947l-0.076-0.314c-0.67,0.095-0.816-0.011-0.912-0.395l-2.51-10.044c-0.096-0.383-0.018-0.546,0.619-0.778l-0.079-0.314l-3.785,0.945l0.079,0.315C132.395,29.15,132.54,29.259,132.636,29.641z"/><circle  cx="100.424" cy="63.927" r="1.345"/><path  d="M105.313,59.354c-0.643,0.373-0.864,1.195-0.494,1.839c0.375,0.644,1.195,0.865,1.84,0.491c0.643-0.371,0.863-1.195,0.492-1.837C106.78,59.203,105.955,58.983,105.313,59.354z"/><path  d="M95.94,44.827l4.989,9.074c0.189,0.346,0.156,0.524-0.158,0.775l0.158,0.285l2.969-1.634l-0.155-0.285c-0.422,0.153-0.59,0.085-0.78-0.26l-1.991-3.62l1.851-1.019l3.479,2.327c0.459,0.303,0.534,0.395,0.589,0.495c0.101,0.184-0.049,0.346-0.261,0.49l0.157,0.284l3.01-1.656l-0.157-0.285c-0.439,0.163-0.731-0.127-1.684-0.796l-3.286-2.22c1.356-1.196,1.482-2.749,0.632-4.294c-1.007-1.832-2.977-2.233-5.216-1.001l-5.082,2.797l0.154,0.285C95.582,44.414,95.748,44.482,95.94,44.827z M100.806,43.317c1.24-0.683,2.06-0.445,2.551,0.451c0.494,0.896,0.257,1.716-0.986,2.399l-2.337,1.285l-1.57-2.848L100.806,43.317z"/><path  d="M93.96,68.413c0.438,0.601,1.278,0.733,1.879,0.296c0.604-0.436,0.736-1.278,0.297-1.879c-0.435-0.602-1.276-0.734-1.879-0.299C93.658,66.97,93.524,67.811,93.96,68.413z"/><circle  cx="86.329" cy="39.775" r="1.346"/><circle  cx="97.852" cy="33.123" r="1.345"/><circle  cx="92.018" cy="36.322" r="1.346"/><path  d="M123.268,40.49c0.386,1.021-0.033,1.949-2.029,2.704c-1.239,0.47-3.224,0.601-3.511-0.16c-0.025-0.063-0.028-0.138-0.041-0.233l-0.352-0.016l-0.284,3.187l0.267,0.049c0.087-0.232,0.125-0.395,0.255-0.444c0.325-0.123,0.709-0.021,1.504-0.022c0.742-0.009,1.701-0.099,2.744-0.494c3.386-1.283,4.26-3.698,3.585-5.479c-1.694-4.472-7.915-0.183-8.787-2.483c-0.277-0.738-0.008-1.536,1.23-2.003c1.802-0.683,3.052-0.263,3.242,0.236c0.051,0.13,0.093,0.313,0.119,0.378l0.352,0.015l0.587-3.3l-0.208-0.022c-0.07,0.202-0.159,0.359-0.399,0.449c-0.217,0.082-0.648-0.003-1.345-0.013c-0.699-0.008-1.626,0.094-2.778,0.533c-2.842,1.075-3.504,3.138-2.854,4.852C116.103,42.286,122.364,38.102,123.268,40.49z"/><circle  cx="123.63" cy="52.104" r="1.346"/><circle  cx="103.82" cy="30.179" r="1.345"/><circle  cx="116.111" cy="25.087" r="1.345"/><circle  cx="122.412" cy="22.947" r="1.346"/><circle  cx="109.91" cy="27.499" r="1.345"/><circle  cx="117.604" cy="54.6" r="1.346"/><path  d="M110.518,58.018c0.338,0.662,1.147,0.926,1.811,0.588c0.662-0.337,0.925-1.147,0.587-1.809c-0.337-0.664-1.147-0.925-1.811-0.589C110.446,56.547,110.181,57.357,110.518,58.018z"/><path  d="M174.865,42.657c-0.744-0.036-1.374,0.533-1.417,1.276c-0.034,0.742,0.53,1.375,1.277,1.415c0.744,0.044,1.374-0.531,1.414-1.273C176.179,43.333,175.609,42.698,174.865,42.657z"/><path  d="M224.223,58.612c0.658,0.344,1.469,0.075,1.808-0.587c0.338-0.662,0.075-1.474-0.589-1.813c-0.663-0.335-1.468-0.073-1.81,0.589C223.297,57.465,223.555,58.274,224.223,58.612z"/><path  d="M226.125,28.739c0.685,0.283,1.472-0.047,1.752-0.726c0.288-0.693-0.032-1.478-0.725-1.76c-0.685-0.284-1.469,0.038-1.756,0.727C225.115,27.668,225.441,28.455,226.125,28.739z"/><path  d="M229.396,59.851c-0.369,0.647-0.152,1.467,0.494,1.84c0.643,0.378,1.465,0.152,1.838-0.491c0.371-0.645,0.151-1.468-0.493-1.842C230.592,58.988,229.771,59.208,229.396,59.851z"/><path  d="M213.731,24.229c0.708,0.222,1.465-0.175,1.686-0.876c0.223-0.716-0.164-1.469-0.878-1.69c-0.707-0.224-1.46,0.167-1.686,0.877C212.631,23.25,213.026,24.005,213.731,24.229z"/><path  d="M234.994,63.199c-0.401,0.625-0.229,1.456,0.398,1.863c0.622,0.41,1.455,0.228,1.861-0.395c0.405-0.625,0.228-1.458-0.397-1.865C236.232,62.399,235.403,62.576,234.994,63.199z"/><path  d="M219.491,53.373c-0.68-0.3-1.471,0.004-1.778,0.683c-0.298,0.682,0.002,1.475,0.685,1.779c0.678,0.307,1.474-0.002,1.777-0.682C220.476,54.475,220.173,53.678,219.491,53.373z"/><path  d="M219.978,26.349c0.696,0.253,1.468-0.11,1.719-0.803c0.257-0.705-0.096-1.473-0.799-1.725c-0.698-0.255-1.467,0.101-1.725,0.802C218.922,25.323,219.28,26.095,219.978,26.349z"/><path  d="M245.625,70.75c-0.462,0.579-0.379,1.424,0.204,1.894c0.575,0.474,1.423,0.379,1.891-0.198c0.469-0.577,0.379-1.426-0.199-1.896C246.939,70.083,246.096,70.174,245.625,70.75z"/><path  d="M228.23,45.856c-1.322,2.452-0.977,4.694,2.065,6.339c3.043,1.644,5.109,0.701,6.431-1.75l3.244-6.004c0.187-0.347,0.355-0.415,0.818-0.245l0.154-0.285l-2.899-1.567l-0.154,0.286c0.355,0.272,0.39,0.45,0.202,0.796l-3.264,6.045c-0.75,1.389-2.032,1.856-3.522,1.051c-1.492-0.804-1.801-2.131-1.053-3.521l3.264-6.044c0.189-0.349,0.356-0.416,0.778-0.268l0.155-0.286l-3.106-1.677l-0.155,0.288c0.439,0.313,0.473,0.492,0.286,0.838L228.23,45.856z"/><path  d="M208.563,42.28l-0.113,0.304l2.875,1.063l0.112-0.305c-0.362-0.158-0.398-0.395-0.327-0.591c0.033-0.085,0.11-0.231,0.233-0.359l1.279-1.582l3.918,1.45l-0.044,2.259c0.008,0.178-0.011,0.295-0.05,0.405c-0.059,0.152-0.182,0.155-0.48,0.095l-0.112,0.302l2.96,1.098l0.113-0.305c-0.223-0.133-0.279-0.253-0.265-0.692l0.236-10.209c0.023-0.661,0.023-0.859,0.072-0.99c0.078-0.218,0.257-0.3,0.592-0.201l0.112-0.304l-3.636-1.345l-0.112,0.305c0.377,0.188,0.43,0.307,0.384,0.439c-0.066,0.172-0.196,0.324-0.471,0.667l-6.626,8.143C209.084,42.076,208.855,42.362,208.563,42.28z M216.814,35.432l0.042,0.015l-0.252,5.104l-2.897-1.071L216.814,35.432z"/><path  d="M250.63,74.932c-0.494,0.556-0.454,1.402,0.102,1.903c0.549,0.502,1.402,0.453,1.9-0.1c0.499-0.552,0.454-1.404-0.1-1.904C251.979,74.336,251.132,74.381,250.63,74.932z"/><path  d="M243.86,37.484c0.643,0.37,1.465,0.146,1.834-0.491c0.374-0.65,0.159-1.468-0.492-1.839c-0.642-0.371-1.461-0.154-1.834,0.492C242.999,36.29,243.219,37.113,243.86,37.484z"/><path  d="M240.408,66.835c-0.434,0.604-0.304,1.442,0.3,1.881c0.598,0.443,1.444,0.304,1.881-0.296c0.437-0.603,0.303-1.445-0.3-1.884C241.687,66.101,240.85,66.235,240.408,66.835z"/><path  d="M232.162,31.396c0.673,0.312,1.472,0.017,1.784-0.649c0.314-0.681,0.03-1.478-0.649-1.79c-0.672-0.314-1.469-0.026-1.785,0.649C231.198,30.28,231.491,31.081,232.162,31.396z"/><path  d="M238.076,34.313c0.66,0.341,1.472,0.082,1.813-0.572c0.344-0.666,0.093-1.474-0.572-1.816c-0.657-0.342-1.465-0.09-1.811,0.571C237.165,33.157,237.421,33.97,238.076,34.313z"/><path  d="M206.355,51.212c0.708,0.234,1.465-0.157,1.696-0.865c0.229-0.707-0.157-1.467-0.865-1.7c-0.708-0.226-1.465,0.16-1.696,0.867C205.265,50.223,205.645,50.98,206.355,51.212z"/><path  d="M186.431,45.156c-0.11,0.734,0.384,1.424,1.122,1.54c0.736,0.122,1.423-0.383,1.54-1.118c0.117-0.733-0.384-1.424-1.12-1.542C187.238,43.921,186.552,44.422,186.431,45.156z"/><path  d="M181.452,17.807c0.735,0.066,1.388-0.486,1.453-1.219c0.063-0.748-0.476-1.4-1.22-1.458c-0.741-0.066-1.391,0.476-1.457,1.221C180.164,17.089,180.711,17.742,181.452,17.807z"/><path  d="M195.015,32.814c0.53-3.372-0.796-6.305-4.604-6.904l-5.046-0.791l-0.051,0.32c0.426,0.137,0.52,0.294,0.458,0.685l-1.604,10.228c-0.062,0.391-0.197,0.51-0.645,0.51l-0.05,0.322l4.586,0.719C191.959,38.515,194.379,36.873,195.015,32.814z M186.62,35.704l1.287-8.211l1.332,0.208c3.05,0.479,3.977,1.611,3.483,4.753c-0.492,3.142-1.722,3.936-4.774,3.458L186.62,35.704z"/><path  d="M174.87,17.377c0.738,0.033,1.368-0.547,1.398-1.281c0.03-0.75-0.537-1.379-1.284-1.405c-0.742-0.033-1.367,0.538-1.401,1.284C173.551,16.715,174.127,17.344,174.87,17.377z"/><circle  cx="168.275" cy="15.888" r="1.345"/><path  d="M211.66,51.625c-0.263,0.695,0.081,1.472,0.777,1.741c0.692,0.272,1.471-0.079,1.738-0.774c0.266-0.694-0.08-1.474-0.775-1.742C212.706,50.586,211.931,50.932,211.66,51.625z"/><path  d="M181.158,45.854c0.74,0.083,1.399-0.458,1.477-1.197c0.078-0.739-0.457-1.402-1.199-1.483c-0.74-0.075-1.397,0.46-1.48,1.201C179.882,45.114,180.414,45.775,181.158,45.854z"/><path  d="M188.007,18.526c0.733,0.097,1.41-0.425,1.505-1.155c0.096-0.744-0.413-1.418-1.155-1.511c-0.737-0.098-1.41,0.417-1.508,1.157C186.753,17.752,187.271,18.429,188.007,18.526z"/><path  d="M192.858,46.276c-0.149,0.728,0.31,1.441,1.038,1.597c0.73,0.16,1.443-0.309,1.598-1.036c0.153-0.728-0.31-1.444-1.038-1.601C193.727,45.084,193.017,45.549,192.858,46.276z"/><path  d="M200.993,20.815c0.724,0.162,1.443-0.301,1.602-1.019c0.16-0.733-0.289-1.449-1.021-1.606c-0.725-0.161-1.439,0.292-1.603,1.021C199.813,19.937,200.271,20.654,200.993,20.815z"/><path  d="M207.4,22.383c0.715,0.191,1.454-0.239,1.646-0.948c0.191-0.725-0.227-1.46-0.951-1.649c-0.717-0.193-1.451,0.229-1.645,0.949C206.258,21.454,206.684,22.19,207.4,22.383z"/><path  d="M167.913,36.064c-0.395-0.029-0.507-0.24-0.504-0.449c0.002-0.091,0.027-0.254,0.101-0.414l0.682-1.917l4.177,0.069l0.709,2.146c0.066,0.164,0.088,0.28,0.086,0.396c-0.002,0.162-0.119,0.207-0.422,0.249l-0.004,0.325l3.155,0.052l0.006-0.324c-0.254-0.052-0.347-0.146-0.479-0.567l-3.164-9.708c-0.199-0.631-0.267-0.818-0.263-0.956c0.004-0.233,0.145-0.37,0.495-0.388l0.005-0.324l-3.878-0.063l-0.006,0.325c0.42,0.054,0.511,0.146,0.509,0.287c-0.004,0.186-0.077,0.371-0.223,0.785l-3.55,9.881c-0.073,0.185-0.194,0.53-0.495,0.55l-0.004,0.325l3.062,0.049L167.913,36.064z M170.361,26.817h0.045l1.453,4.9l-3.086-0.05L170.361,26.817z"/><path  d="M194.524,19.529c0.729,0.129,1.428-0.363,1.556-1.087c0.127-0.74-0.352-1.436-1.09-1.561c-0.731-0.13-1.427,0.354-1.557,1.09C193.305,18.702,193.796,19.399,194.524,19.529z"/><path  d="M200.17,49.379c0.719,0.199,1.455-0.234,1.647-0.952c0.193-0.718-0.233-1.457-0.952-1.652c-0.721-0.189-1.455,0.236-1.652,0.953C199.029,48.449,199.45,49.187,200.17,49.379z"/><path  d="M309.701,225.524c-0.685-0.284-1.474,0.041-1.758,0.727c-0.28,0.687,0.047,1.473,0.729,1.756c0.69,0.287,1.475-0.037,1.754-0.728C310.712,226.593,310.391,225.81,309.701,225.524z"/><path  d="M147.941,259.573c-0.493-0.111-0.959-0.249-1.41-0.403c-1.89,0.658-3.7,1.38-5.423,2.15c0.333,0.322,0.669,0.639,1.004,0.958c1.936-0.848,3.979-1.63,6.123-2.325C148.134,259.828,148.034,259.703,147.941,259.573z"/><path  d="M149.738,261.736c-2.078,0.625-4.065,1.333-5.958,2.107c0.35,0.322,0.698,0.645,1.052,0.963c1.679-0.669,3.433-1.287,5.258-1.835C149.938,262.586,149.821,262.174,149.738,261.736z"/><path  d="M140.157,254.38c-1.374,0.605-2.703,1.234-3.973,1.888c0.304,0.326,0.608,0.654,0.914,0.979c1.243-0.632,2.544-1.241,3.89-1.824C140.69,255.081,140.414,254.733,140.157,254.38z"/><path  d="M142.623,257.008c-1.393,0.566-2.741,1.163-4.035,1.786c0.317,0.326,0.634,0.65,0.953,0.972c1.381-0.655,2.823-1.279,4.319-1.868C143.42,257.619,143.009,257.322,142.623,257.008z"/><path  d="M151.271,264.874c-1.605,0.453-3.159,0.959-4.657,1.508c0.374,0.325,0.751,0.646,1.129,0.97c1.511-0.534,3.076-1.021,4.693-1.455C152.015,265.607,151.623,265.266,151.271,264.874z"/><path  d="M161.139,266.472c-4.098,0.479-7.927,1.346-11.473,2.48c0.401,0.328,0.799,0.658,1.207,0.981c3.669-1.115,7.639-1.935,11.894-2.326C162.14,267.27,161.597,266.884,161.139,266.472z"/><path  d="M136.302,241.357c-3.21,1.468-6.136,3.06-8.745,4.674c0.262,0.341,0.523,0.682,0.788,1.021c2.438-1.504,5.156-2.988,8.129-4.367L136.302,241.357z"/><path  d="M134.909,238.283c-3.462,1.62-6.571,3.378-9.314,5.134c0.253,0.346,0.509,0.69,0.766,1.032c3.088-1.971,6.651-3.945,10.665-5.716L134.909,238.283z"/><path  d="M132.882,235.536c-3.431,1.679-6.499,3.475-9.181,5.247c0.246,0.352,0.496,0.695,0.744,1.043c2.966-1.955,6.407-3.941,10.3-5.76C134.173,235.952,133.535,235.769,132.882,235.536z"/><path  d="M138.459,251.456c-1.595,0.73-3.124,1.492-4.57,2.278c0.293,0.33,0.587,0.657,0.882,0.984c1.355-0.729,2.782-1.435,4.266-2.112C138.823,252.218,138.632,251.832,138.459,251.456z"/><path  d="M165.748,280.182c0.712,0.421,1.428,0.833,2.148,1.239c0.125,0,0.242-0.009,0.366-0.009c0.098,0,0.192,0.007,0.29,0.007c0.719-0.407,1.436-0.817,2.146-1.237c-0.804-0.037-1.613-0.063-2.435-0.063C167.413,280.119,166.577,280.145,165.748,280.182z"/><path  d="M129.248,233.653c-2.726,1.467-5.185,2.984-7.37,4.468c0.24,0.357,0.481,0.71,0.724,1.064c2.314-1.571,4.948-3.183,7.882-4.728C130.033,234.206,129.621,233.936,129.248,233.653z"/><path  d="M136.754,244.847c-2.581,1.193-4.977,2.469-7.167,3.772c0.273,0.339,0.544,0.68,0.816,1.014c2.004-1.188,4.188-2.347,6.524-3.442L136.754,244.847z"/><path  d="M229.379,199.027c1.457,1.078,2.687,2.06,3.68,2.894c0.163-0.431,0.323-0.857,0.477-1.28c-0.995-0.822-2.201-1.773-3.6-2.803L229.379,199.027z"/><path  d="M198.855,249.678c1.746,0.831,3.406,1.703,4.967,2.596c0.286-0.333,0.57-0.662,0.852-0.997c-1.707-0.984-3.521-1.943-5.445-2.854C199.129,248.817,199.004,249.238,198.855,249.678z"/><path  d="M192.569,257.962c1.476,0.589,2.9,1.214,4.266,1.87c0.321-0.322,0.64-0.647,0.956-0.973c-1.27-0.62-2.596-1.214-3.962-1.779C193.434,257.393,193.015,257.688,192.569,257.962z"/><path  d="M160.806,277.109c0.565,0.368,1.132,0.731,1.702,1.093c1.862-0.196,3.775-0.307,5.752-0.307c1.95,0,3.84,0.11,5.674,0.305c0.57-0.359,1.137-0.721,1.699-1.088c-2.367-0.321-4.818-0.511-7.373-0.511C165.676,276.602,163.197,276.789,160.806,277.109z"/><path  d="M197.48,252.737c1.429,0.664,2.807,1.354,4.115,2.066c0.297-0.328,0.592-0.654,0.885-0.987c-1.398-0.767-2.87-1.512-4.403-2.226C197.896,251.97,197.698,252.354,197.48,252.737z"/><path  d="M200.063,242.821c2.905,1.367,5.563,2.839,7.961,4.331c0.265-0.341,0.528-0.686,0.793-1.028c-2.571-1.603-5.439-3.182-8.579-4.642L200.063,242.821z"/><path  d="M199.606,246.324c2.27,1.083,4.397,2.228,6.356,3.399c0.276-0.336,0.55-0.678,0.824-1.018c-2.146-1.289-4.489-2.548-7.004-3.73L199.606,246.324z"/><path  d="M195.482,255.522c1.309,0.576,2.576,1.177,3.791,1.802c0.308-0.325,0.611-0.655,0.916-0.982c-1.234-0.642-2.521-1.261-3.853-1.857C196.072,254.838,195.786,255.185,195.482,255.522z"/><path  d="M152.977,271.576c0.436,0.335,0.877,0.662,1.319,0.989c4.287-1.062,8.942-1.703,13.963-1.703c4.978,0,9.603,0.646,13.866,1.72c0.439-0.328,0.882-0.652,1.319-0.984c-4.635-1.257-9.698-2.027-15.185-2.027C162.728,269.57,157.634,270.334,152.977,271.576z"/><path  d="M156.641,274.272c0.49,0.346,0.981,0.689,1.474,1.03c3.196-0.584,6.576-0.925,10.145-0.925c3.537,0,6.886,0.344,10.058,0.933c0.493-0.34,0.984-0.682,1.474-1.029c-3.606-0.753-7.448-1.194-11.532-1.194C164.142,273.087,160.271,273.525,156.641,274.272z"/><path  d="M172.498,267.506c4.685,0.34,9.037,1.219,13.038,2.458c0.406-0.324,0.804-0.653,1.204-0.981c-3.877-1.259-8.09-2.187-12.615-2.632C173.614,266.793,173.074,267.182,172.498,267.506z"/><path  d="M186.74,263.137c1.665,0.521,3.274,1.098,4.817,1.722c0.353-0.318,0.703-0.644,1.053-0.968c-1.692-0.702-3.458-1.353-5.299-1.934C187.148,262.373,186.953,262.764,186.74,263.137z"/><path  d="M187.909,259.706c-0.009,0.063-0.029,0.125-0.038,0.188c2.242,0.727,4.378,1.548,6.397,2.445c0.337-0.321,0.674-0.639,1.009-0.965c-1.715-0.776-3.518-1.503-5.394-2.166C189.26,259.416,188.604,259.586,187.909,259.706z"/><path  d="M184.082,265.948c1.573,0.431,3.098,0.914,4.57,1.442c0.378-0.321,0.758-0.645,1.133-0.97c-1.434-0.535-2.92-1.025-4.453-1.468C184.949,265.325,184.534,265.662,184.082,265.948z"/><path  d="M231.631,191.104c-0.1,0.449-0.221,0.894-0.354,1.33c1.656,1.224,3.011,2.313,4.03,3.178c0.151-0.445,0.295-0.885,0.438-1.318c-1.074-0.896-2.454-1.988-4.114-3.198V191.104z"/><path  d="M105.329,182.708c-2.944,2.012-5.177,3.784-6.65,5.034c0.127,0.445,0.261,0.898,0.399,1.36c1.369-1.187,3.61-3.006,6.665-5.112C105.592,183.573,105.455,183.145,105.329,182.708z"/><path  d="M240.132,179.049c0.116-0.51,0.222-0.984,0.318-1.42c-6.714-5.604-31.985-24.106-72.172-24.106c-40.188,0-65.458,18.502-72.171,24.106c0.094,0.436,0.199,0.91,0.316,1.42c5.66-4.854,30.887-24.233,71.855-24.233C209.245,154.816,234.472,174.195,240.132,179.049z"/><path  d="M104.116,175.702c-3.29,2.188-5.711,4.092-7.218,5.356c0.108,0.446,0.225,0.912,0.348,1.395c1.339-1.16,3.717-3.095,7.067-5.368L104.116,175.702z"/><path  d="M104.622,179.251c-3.08,2.089-5.387,3.919-6.863,5.171c0.119,0.449,0.244,0.907,0.373,1.38c1.33-1.151,3.587-2.99,6.717-5.142C104.729,180.072,104.622,179.251,104.622,179.251z"/><path  d="M104.918,191.107l-0.036-0.163c-1.718,1.26-3.123,2.386-4.201,3.297c0.143,0.437,0.289,0.877,0.44,1.322c1.018-0.874,2.389-1.997,4.111-3.273C105.115,191.9,105.006,191.506,104.918,191.107z"/><path  d="M106.506,185.842c-1.777,1.095-5.852,4.297-6.853,5.173c0.136,0.439,0.275,0.887,0.417,1.34c1.942-1.743,5.526-4.337,7.023-5.351L106.506,185.842z"/><path  d="M105.927,194.162c-1.683,1.23-3.075,2.342-4.172,3.263c0.151,0.429,0.305,0.866,0.461,1.304c1.082-0.924,2.515-2.083,4.28-3.382C106.29,194.959,106.102,194.564,105.927,194.162z"/><path  d="M229.39,187.126c1.967,1.382,5.271,3.792,6.969,5.267c0.143-0.455,0.285-0.905,0.422-1.347c-1.541-1.399-4.8-3.697-6.783-5.108L229.39,187.126z"/><path  d="M232.22,177.212c3.245,2.191,5.59,4.065,6.978,5.248c0.125-0.486,0.24-0.955,0.349-1.405c-1.539-1.289-3.931-3.165-7.119-5.3L232.22,177.212z"/><path  d="M229.981,195.479c1.721,1.258,3.139,2.391,4.227,3.308c0.156-0.438,0.309-0.87,0.457-1.299c-1.091-0.908-2.469-1.993-4.105-3.183C230.381,194.703,230.191,195.095,229.981,195.479z"/><path  d="M199.386,238.764c-0.02,0.005-0.042,0.009-0.062,0.014c4.014,1.785,7.583,3.778,10.685,5.773c0.256-0.343,0.512-0.688,0.766-1.035c-2.768-1.786-5.904-3.571-9.391-5.215L199.386,238.764z"/><path  d="M231.688,180.76c3.023,2.081,5.251,3.877,6.622,5.055c0.129-0.473,0.253-0.931,0.373-1.378c-1.501-1.264-3.774-3.054-6.768-5.085C231.915,179.352,231.803,180.109,231.688,180.76z"/><path  d="M230.763,184.118c1.364,0.872,5.541,4.109,6.597,5.013c0.138-0.467,0.269-0.92,0.398-1.366c-0.872-0.734-5.093-4.026-6.566-4.958C231.062,183.253,230.918,183.691,230.763,184.118z"/><path  d="M109.43,203.583c-1.608,1.152-3,2.227-4.151,3.166c0.167,0.414,0.341,0.829,0.515,1.247c1.181-0.978,2.644-2.118,4.363-3.351C109.896,204.298,109.659,203.943,109.43,203.583z"/><path  d="M118.454,220.945c-1.803,1.176-3.431,2.327-4.864,3.41c0.207,0.381,0.414,0.76,0.624,1.14c1.507-1.146,3.233-2.372,5.168-3.628C119.058,221.579,118.751,221.27,118.454,220.945z"/><path  d="M121.077,223.146c-2.218,1.377-4.2,2.74-5.934,4.024c0.215,0.378,0.428,0.755,0.644,1.129c1.889-1.407,4.088-2.916,6.579-4.434C121.921,223.648,121.491,223.409,121.077,223.146z"/><path  d="M116.491,218.353c-1.634,1.098-3.106,2.163-4.404,3.159c0.201,0.389,0.403,0.772,0.607,1.158c1.324-1.023,2.84-2.124,4.532-3.261L116.491,218.353z"/><path  d="M124.773,228.578c-2.361,1.385-4.489,2.782-6.372,4.124c0.224,0.364,0.446,0.734,0.673,1.096c2.029-1.448,4.351-2.965,6.952-4.46C125.573,229.111,125.154,228.859,124.773,228.578z"/><path  d="M122.059,226.388c-1.955,1.211-3.727,2.414-5.31,3.566c0.219,0.372,0.437,0.745,0.657,1.115c1.684-1.23,3.592-2.523,5.71-3.819L122.059,226.388z"/><path  d="M114.639,215.694c-1.491,1.025-2.83,2.016-4.011,2.937c0.195,0.395,0.395,0.782,0.592,1.176c1.211-0.952,2.6-1.982,4.154-3.055L114.639,215.694z"/><path  d="M111.421,210.313l-0.098-0.167c-1.291,0.928-2.451,1.811-3.463,2.618c0.181,0.403,0.363,0.808,0.55,1.213c1.038-0.837,2.241-1.762,3.598-2.737C111.809,210.938,111.611,210.636,111.421,210.313z"/><path  d="M113.136,212.808c-1.464,1.024-2.772,2.004-3.915,2.908c0.188,0.396,0.372,0.791,0.565,1.19c1.205-0.96,2.606-2.016,4.192-3.123C113.69,213.477,113.41,213.148,113.136,212.808z"/><path  d="M107.944,200.688c-1.516,1.101-2.814,2.116-3.885,2.998c0.161,0.418,0.329,0.84,0.495,1.262c1.063-0.887,2.385-1.932,3.943-3.072L107.944,200.688z"/><path  d="M126.511,231.387c-2.355,1.345-4.491,2.713-6.396,4.041c0.231,0.362,0.462,0.725,0.697,1.082c1.996-1.392,4.253-2.829,6.754-4.238L126.511,231.387z"/><path  d="M106.558,197.72c-1.443,1.06-2.67,2.03-3.673,2.862c0.155,0.421,0.315,0.847,0.475,1.272c0.995-0.845,2.249-1.854,3.743-2.967L106.558,197.72z"/><path  d="M109.685,207.366c-1.172,0.858-2.224,1.67-3.138,2.409c0.174,0.407,0.354,0.816,0.533,1.229c0.936-0.766,2.03-1.616,3.262-2.522L109.685,207.366z"/><path  d="M137.324,248.28c-1.992,0.927-3.87,1.904-5.628,2.906c0.281,0.336,0.567,0.667,0.852,1c1.616-0.916,3.335-1.808,5.15-2.657C137.543,249.068,137.419,248.646,137.324,248.28z"/><path  d="M279.735,270.531c-0.5,0.549-0.461,1.398,0.085,1.898c0.55,0.505,1.398,0.47,1.898-0.082c0.5-0.549,0.471-1.396-0.081-1.899C281.089,269.946,280.235,269.982,279.735,270.531z"/><path  d="M282.935,251.477l-0.185,0.271l2.272,1.532l0.182-0.271c-0.251-0.252-0.204-0.446,0.096-0.89l4.542-6.737l-0.269-0.181c-0.434,0.52-0.616,0.537-0.941,0.314l-8.587-5.788c-0.326-0.22-0.378-0.395-0.084-0.951l-0.271-0.182l-4.698,6.966c-0.299,0.443-0.459,0.56-0.788,0.422l-0.183,0.268l2.31,1.559l0.182-0.27c-0.25-0.252-0.203-0.446,0.096-0.888l2.985-4.427l2.771,1.869l-1.66,2.463c-0.299,0.442-0.462,0.56-0.75,0.447l-0.182,0.268l2.272,1.533l0.181-0.269c-0.249-0.252-0.204-0.446,0.095-0.888l1.664-2.465l2.503,1.687l-2.808,4.159C283.384,251.472,283.222,251.586,282.935,251.477z"/><path  d="M277.212,261.108l-7.701-6.922c-0.292-0.263-0.318-0.442-0.013-0.886l-0.242-0.218l-4.143,4.611c-1.707,1.899-1.675,4.019-0.329,5.228c1.278,1.148,2.527,1.148,3.874,0.204l0.035,0.031c-0.58,1.131-0.261,2.479,0.618,3.27c1.191,1.072,3.38,1.104,5.18-0.899l3.846-4.282l-0.242-0.217C277.689,261.375,277.507,261.37,277.212,261.108z M266.666,261.491c-0.934-0.838-0.615-1.924,0.487-3.149l1.566-1.745l2.591,2.327l-1.568,1.744C268.644,261.894,267.598,262.329,266.666,261.491z M273.273,263.963c-0.979,1.09-1.771,1.313-2.513,0.646c-0.745-0.669-0.606-1.479,0.373-2.567l1.628-1.813l2.141,1.923L273.273,263.963z"/><path  d="M275.174,275.295c-0.522,0.527-0.521,1.378,0.002,1.9c0.527,0.529,1.376,0.532,1.898,0.002c0.526-0.525,0.531-1.374,0.003-1.902C276.553,274.771,275.698,274.768,275.174,275.295z"/><path  d="M290.099,260.181c-0.589-0.452-1.438-0.342-1.887,0.249c-0.45,0.589-0.337,1.433,0.25,1.882c0.592,0.457,1.434,0.348,1.883-0.247C290.796,261.477,290.69,260.633,290.099,260.181z"/><path  d="M284.084,265.572c-0.476,0.569-0.4,1.418,0.167,1.894c0.572,0.48,1.416,0.408,1.891-0.165c0.477-0.569,0.409-1.415-0.162-1.894C285.409,264.931,284.561,265.002,284.084,265.572z"/><path  d="M265.452,284.206c-0.568,0.479-0.64,1.325-0.165,1.894c0.479,0.572,1.325,0.649,1.893,0.166c0.568-0.479,0.647-1.323,0.168-1.895C266.87,283.804,266.021,283.726,265.452,284.206z"/><path  d="M260.308,288.333c-0.588,0.455-0.696,1.298-0.245,1.887c0.452,0.591,1.293,0.706,1.881,0.249c0.589-0.454,0.706-1.294,0.25-1.886C261.741,287.994,260.896,287.881,260.308,288.333z"/><circle  cx="255.761" cy="293.336" r="1.344"/><path  d="M270.41,279.856c-0.547,0.504-0.581,1.354-0.081,1.898c0.502,0.552,1.351,0.591,1.897,0.085c0.548-0.504,0.59-1.351,0.085-1.9C271.81,279.393,270.957,279.353,270.41,279.856z"/><path  d="M249.506,295.899c-0.625,0.399-0.807,1.23-0.411,1.856c0.401,0.629,1.228,0.815,1.854,0.411c0.627-0.399,0.815-1.227,0.415-1.857C250.963,295.686,250.132,295.496,249.506,295.899z"/><path  d="M293.986,254.779c-0.607-0.425-1.451-0.279-1.874,0.331c-0.423,0.608-0.274,1.446,0.332,1.87c0.612,0.429,1.446,0.285,1.87-0.328C294.74,256.042,294.598,255.206,293.986,254.779z"/><path  d="M245.817,264.181c-0.581,0.465-0.668,1.315-0.199,1.894c0.466,0.578,1.316,0.665,1.896,0.198c0.578-0.47,0.664-1.315,0.197-1.896C247.243,263.803,246.396,263.711,245.817,264.181z"/><path  d="M263.106,275.604l-6.708-7.889c-0.256-0.301-0.258-0.48,0.104-0.88l-0.211-0.248l-6.152,5.234c-0.409,0.345-0.595,0.414-0.873,0.192l-0.249,0.21l1.896,2.229l0.249-0.211c-0.264-0.415-0.167-0.589,0.238-0.937l3.891-3.308l6.047,7.108c0.254,0.301,0.256,0.481-0.212,0.972l0.212,0.248l2.9-2.468l-0.21-0.249C263.541,275.934,263.361,275.902,263.106,275.604z"/><path  d="M318.712,193.561c-0.732-0.129-1.429,0.359-1.559,1.091c-0.126,0.731,0.364,1.427,1.09,1.556c0.738,0.131,1.433-0.354,1.556-1.09C319.931,194.385,319.449,193.689,318.712,193.561z"/><path  d="M319.664,186.974c-0.731-0.095-1.412,0.424-1.506,1.158c-0.095,0.735,0.425,1.41,1.157,1.507c0.741,0.099,1.414-0.416,1.507-1.156C320.919,187.746,320.408,187.071,319.664,186.974z"/><path  d="M317.469,200.099c-0.723-0.161-1.444,0.296-1.601,1.021c-0.159,0.724,0.3,1.441,1.02,1.602c0.729,0.163,1.444-0.292,1.603-1.021C318.652,200.976,318.201,200.26,317.469,200.099z"/><path  d="M315.947,206.575c-0.718-0.19-1.457,0.234-1.647,0.952c-0.189,0.717,0.238,1.452,0.95,1.645c0.723,0.194,1.458-0.229,1.647-0.95C317.09,207.505,316.667,206.768,315.947,206.575z"/><path  d="M320.332,180.353c-0.738-0.063-1.393,0.485-1.457,1.224c-0.064,0.739,0.485,1.39,1.221,1.455c0.746,0.065,1.395-0.479,1.457-1.222C321.618,181.069,321.077,180.418,320.332,180.353z"/><path  d="M320.707,173.709c-0.74-0.031-1.368,0.544-1.4,1.286c-0.031,0.74,0.544,1.366,1.284,1.4c0.746,0.031,1.372-0.539,1.401-1.285C322.023,174.369,321.456,173.742,320.707,173.709z"/><path  d="M314.14,212.981c-0.706-0.224-1.465,0.169-1.687,0.879c-0.221,0.707,0.175,1.46,0.878,1.684c0.713,0.227,1.466-0.165,1.686-0.878C315.243,213.958,314.853,213.204,314.14,212.981z"/><path  d="M295.954,233.783c-0.256,0.368-0.432,0.412-0.787,0.237l-6.172-3.017c-1.42-0.692-1.941-1.953-1.195-3.478c0.745-1.522,2.059-1.887,3.478-1.194l6.173,3.018c0.351,0.174,0.429,0.34,0.298,0.765l0.293,0.143l1.548-3.168l-0.292-0.144c-0.296,0.449-0.474,0.492-0.828,0.318l-6.133-2.997c-2.501-1.222-4.729-0.786-6.249,2.321c-1.517,3.107-0.492,5.133,2.011,6.354l6.132,2.996c0.354,0.176,0.428,0.34,0.276,0.807l0.29,0.143l1.45-2.958L295.954,233.783z"/><path  d="M304.185,237.632c-0.658-0.343-1.475-0.087-1.813,0.572c-0.341,0.659-0.083,1.47,0.57,1.812c0.665,0.347,1.475,0.093,1.813-0.57C305.098,238.785,304.847,237.976,304.185,237.632z"/><path  d="M297.634,249.214c-0.625-0.399-1.462-0.216-1.857,0.411c-0.396,0.628-0.21,1.457,0.414,1.855c0.628,0.402,1.458,0.22,1.853-0.41C298.443,250.442,298.264,249.614,297.634,249.214z"/><path  d="M301.035,243.494c-0.643-0.37-1.469-0.151-1.836,0.494c-0.369,0.644-0.147,1.463,0.492,1.833c0.647,0.375,1.467,0.158,1.836-0.491C301.898,244.686,301.682,243.866,301.035,243.494z"/><path  d="M307.076,231.639c-0.674-0.313-1.477-0.023-1.787,0.65c-0.312,0.672-0.02,1.472,0.651,1.785c0.676,0.316,1.473,0.027,1.785-0.65C308.039,232.751,307.754,231.952,307.076,231.639z"/><path  d="M312.056,219.301c-0.695-0.253-1.469,0.105-1.722,0.804c-0.252,0.697,0.108,1.469,0.801,1.722c0.705,0.256,1.473-0.102,1.724-0.804C313.114,220.323,312.759,219.555,312.056,219.301z"/><path  d="M219.986,310.457c-0.697,0.257-1.056,1.028-0.804,1.724c0.255,0.7,1.023,1.063,1.72,0.803c0.7-0.253,1.062-1.021,0.808-1.722C221.456,310.565,220.684,310.203,219.986,310.457z"/><path  d="M225.151,210.276l-0.021,0.036c-0.22,0.369-0.443,0.714-0.67,1.056c1.323,0.955,2.508,1.864,3.535,2.69c0.187-0.404,0.371-0.81,0.553-1.212C227.548,212.049,226.41,211.183,225.151,210.276z"/><path  d="M222.458,213.9c1.563,1.095,2.953,2.141,4.154,3.099c0.193-0.399,0.381-0.798,0.569-1.195c-1.136-0.897-2.43-1.868-3.869-2.879C223.035,213.267,222.749,213.592,222.458,213.9z"/><path  d="M221.084,216.881c1.525,1.057,2.89,2.074,4.092,3.017c0.197-0.392,0.398-0.781,0.593-1.175c-1.169-0.912-2.49-1.888-3.949-2.897L221.084,216.881z"/><path  d="M218.841,261.36h0.301c3.586,0,15.505-0.814,18.338-11.291c3.231-11.96-6.017-21.868-8.967-24.655c3.332-6.308,6.092-12.428,8.359-18.105c1.351-1.12,2.681-2.286,3.984-3.506c9.359-8.771,16.33-18.993,19.631-28.786c1.671-4.955,6.861-21.268-5.474-34.025c-5.581-5.772-13.307-8.958-22.602-8.958c-13.325,0-27.695,6.308-39.428,17.3c-0.339,0.317-0.662,0.645-0.991,0.967c-2.717-0.47-5.37-0.841-8.136-1.147c-0.643-1.337-1.132-2.604-1.497-3.809c0.18,0.037,0.339,0.056,0.451,0.056c2.026,0,3.304-1.299,3.508-3.565c0.135-1.488-0.063-2.672-0.207-3.536c-0.221-1.321-0.166-1.4,0.157-1.598c1.831-1.116,2.375-3.548,2.41-4.81c0.052-2.053-0.428-3.556-0.905-4.536c1.507-0.395,3.712-1.387,4.828-3.874c0.925-2.06,1.374-3.354,0.316-7.119c0.856-1.148,2.538-4.266-0.485-8.176l1.042-6.69l-0.208-0.313c-1.451-2.184-3.203-4.152-5.106-5.899c-1.813-7.633-6.323-13.758-12.136-16.677v-3.174h4.172v-6.877h-1.811c0.166-7.564,4.313-13.063,6.36-15.774l1.371-1.835l-1.582-0.252c-5.19-0.825-10.66-1.247-16.256-1.247c-5.597,0-11.067,0.421-16.258,1.247l-1.58,0.252l1.37,1.834c2.048,2.712,6.192,8.211,6.358,15.776h-1.811v6.877h4.175v3.176c-5.816,2.922-10.334,9.044-12.145,16.682c-1.901,1.746-3.651,3.714-5.1,5.893l-0.209,0.313l1.044,6.69c-3.021,3.91-1.341,7.028-0.484,8.176c-1.058,3.768-0.611,5.059,0.314,7.119c1.115,2.487,3.322,3.479,4.829,3.874c-0.48,0.979-0.959,2.483-0.904,4.536c0.032,1.262,0.577,3.694,2.409,4.81c0.324,0.198,0.377,0.277,0.159,1.6c-0.145,0.863-0.344,2.045-0.21,3.534c0.203,2.265,1.484,3.565,3.509,3.565c0.25,0-0.148,0.261,0.454-0.056c-0.44,1.387-0.77,2.394-1.47,3.737c-3.077,0.333-5.362,0.733-8.319,1.247c-0.337-0.331-0.67-0.668-1.019-0.995c-11.732-10.992-26.106-17.3-39.428-17.3c-9.296,0-17.021,3.186-22.601,8.958c-12.335,12.757-7.145,29.07-5.475,34.025c3.299,9.793,10.273,20.016,19.63,28.786c1.39,1.304,2.813,2.545,4.254,3.735c2.252,5.611,4.98,11.651,8.269,17.876c-2.954,2.791-12.198,12.698-8.966,24.655c2.831,10.477,14.75,11.291,18.335,11.291h0.303c0.642-0.003,1.32-0.003,2.021,0.01c2.239,0.576,3.397,1.454,3.688,2.555c1.418,5.38,2.186,7.133,4.323,5.54c1.536,2.824-1.371,6.702-1.371,6.702s6.055-1.213,6.741-5.933c0.473-3.224-0.333-5.822-2.005-7.68c-3.208-3.56-9.107-3.554-13.399-3.555h-0.302c-0.313,0-0.699-0.008-1.141-0.028c-2.295-1.548-3.472-3.316-3.584-5.403c-0.225-4.229,3.935-8.657,6.012-10.595c11.584,16.718,27.59,33.14,49.583,44.819c21.992-11.68,38-28.102,49.581-44.819c2.08,1.938,6.239,6.365,6.014,10.595c-0.113,2.087-1.288,3.855-3.587,5.403c-0.439,0.021-0.829,0.028-1.141,0.028h-0.299c-4.293,0.001-10.192-0.005-13.398,3.555c-1.675,1.857-2.48,4.456-2.008,7.68c0.687,4.72,6.744,5.933,6.744,5.933s-2.907-3.878-1.374-6.702c2.138,1.593,2.906-0.16,4.321-5.54c0.292-1.101,1.452-1.979,3.691-2.555C217.521,261.357,218.199,261.357,218.841,261.36z M260.048,161.628c0.372,3.678-0.217,7.946-1.799,12.635c-3.175,9.432-9.926,19.31-19.007,27.816c-0.18,0.171-0.367,0.329-0.548,0.494c5.376-14.552,7.39-25.376,7.755-27.513c-1.313-1.174-2.685-2.314-4.1-3.427c4.742-7.787,7.48-15.62,7.617-22.366c0-0.059,0.004-0.122,0.006-0.182c0,0,1.125,8.789-2.75,18.318c0,0,4.844-5.813,6.137-14.534c0,0,0,12.435-4.521,21.639c0,0,6.297-6.943,7.427-18.57c0,0,0.483,16.147-7.106,28.744c0,0,9.671-12.195,10.86-23.267C260.027,161.489,260.042,161.556,260.048,161.628z M240.481,170.206c-6.597-4.906-14.183-9.142-22.53-12.542c9.009-5.824,18.316-9.196,26.066-9.196c1.259,0,2.461,0.093,3.598,0.273C247.624,155.136,245.042,162.667,240.481,170.206z M232.411,134.739c8.528,0,15.661,2.803,20.63,8.104c2.183,2.331,3.863,5.075,5.01,8.149c-3.295-3.425-8.14-5.232-14.034-5.232c-8.681,0-19.129,3.927-29.042,10.639c8.466-10.24,19.49-11.601,19.49-11.601c-14.21,0.484-24.383,9.203-24.383,9.203c8.073-12.271,27.773-13.726,27.773-13.726c-20.346-1.13-34.397,11.144-34.397,11.144c3.393-6.944,20.995-13.243,20.995-13.243c-14.657,2.655-24.48,9.062-28.057,11.727C207.329,140.25,220.347,134.739,232.411,134.739z M183.732,143.079c-1.202,0.268-1.499-2.18-1.571-3.204c-0.119-1.623,0.185-3.828,0.185-3.828C185.676,139.608,185.174,142.759,183.732,143.079z M185.159,135.309c0,0-2.959-3.563,0.741-7.359C185.9,127.95,189.047,132.224,185.159,135.309z M187.103,124.479c0,0-0.184-4.807,4.534-6.409C191.636,118.069,193.394,123.677,187.103,124.479z M192.294,113.122c-0.422,3.106-4.359,3.492-4.359,3.492c3.766-4.391,0.988-9.495,0.988-9.495S192.873,108.901,192.294,113.122z M178.254,73.495h-14.02l7.261-3.003h6.759V73.495z M160.108,68.554c-0.148-7.542-3.891-13.1-6.187-16.188c1.359-0.191,2.739-0.347,4.131-0.483c0.811,2.202,2.098,6.332,2.098,6.332c0.055-3.17-0.805-6.312-0.805-6.312l-0.035-0.128c1.103-0.095,2.216-0.171,3.336-0.231c0.985,3.911,1.398,7.912,1.398,7.912c0.365-3.182,0.294-7.697,0.294-7.697l-0.063-0.296c0.97-0.036,1.947-0.05,2.927-0.061l1.07,9.501l0.927-9.503c1.027,0.007,2.052,0.024,3.07,0.063l-0.065,0.296c0,0-0.067,4.515,0.297,7.697c0,0,0.413-4.001,1.399-7.911c1.121,0.059,2.231,0.135,3.336,0.23l-0.034,0.128c0,0-0.862,3.141-0.808,6.312c0,0,1.287-4.13,2.099-6.332c1.393,0.137,2.776,0.292,4.133,0.483c-2.297,3.089-6.04,8.645-6.187,16.188H160.108z M153.459,91.198c0,0,4.149-5.073,11.687-7.745c0,0-4.409-0.132-9.963,3.541c0,0,2.492-3.474,10.024-6.211c0,0-3.526,0.179-7.353,1.911c2.985-2.54,6.569-4.014,10.421-4.014c3.909,0,7.544,1.521,10.558,4.133c-2.162-0.888-3.493-0.739-3.493-0.739c5.707,3.026,6.982,5.964,6.982,5.964c-2.126-1.515-4.087-1.691-4.087-1.691c2.904,1.903,4.737,4.199,5.636,5.516c-6.031-4.192-12.481-6.41-15.596-6.41c-3.006,0-9.118,2.066-14.964,5.98C153.362,91.354,153.411,91.281,153.459,91.198z M168.25,87.326c3.995,0,16.59,4.95,23.165,14.554l-0.031,0.19c-1.354-1.719-5.92-6.228-13.603-8.281c0,0,8.337,3.916,13.215,10.353c-3.093-2.72-6.359-5.586-13.431-7.243c0,0,5.4,1.467,12.077,8.37l-0.002,0.005c-5.869-4.604-15.454-7.03-21.177-7.03c-4.826,0-15.057,1.993-19.755,5.917c6.921-6.387,15.933-8.055,15.933-8.055c-8.692,0.303-14.632,3.943-17.545,6.239c7.005-7.187,17.176-9.889,17.176-9.889c-10.173,1.155-16.35,6.354-18.706,8.75C152.258,92.047,164.351,87.326,168.25,87.326z M147.627,107.12c0,0-2.776,5.104,0.988,9.495c0,0-3.937-0.386-4.361-3.492C143.68,108.901,147.627,107.12,147.627,107.12z M144.913,118.069c4.72,1.603,4.535,6.409,4.535,6.409C143.157,123.677,144.913,118.069,144.913,118.069z M150.648,127.95c3.704,3.796,0.741,7.359,0.741,7.359C147.503,132.224,150.648,127.95,150.648,127.95z M154.565,139.875c-0.075,1.023-0.371,3.472-1.573,3.204c-1.443-0.32-1.945-3.471,1.388-7.032C154.379,136.047,154.683,138.252,154.565,139.875z M155.239,133.16c-3.379-4.712-5.511-11.674-5.81-16.673c-0.012-0.209-1.392-2.403-1.405-4.854c-0.017-3.018,1.406-6.851,2.458-7.443c6.279-3.527,13.701-4.861,17.913-4.861c6.423,0,13.154,2.55,17.619,4.861c1.092,0.565,2.683,4.682,2.648,7.767c-0.025,2.405-1.584,4.381-1.601,4.594c-0.766,8.736-3.724,13.42-5.75,16.609c-0.946,3.498-1.429,10.266,1.424,15.804c-0.73-0.075-1.465-0.141-2.201-0.206c-2.128-5.033-2.334-9.138-1.728-12.472c-3.221,3.512-6.922,5.476-10.561,5.476c-2.869,0-7.601-2.007-10.519-5.442c0.688,5.6-0.007,8.428-1.654,12.433c-1.04,0.076-1.196,0.07-2.226,0.169C156.02,144.429,156.529,138.561,155.239,133.16z M83.331,142.843c4.966-5.301,12.098-8.104,20.628-8.104c12.065,0,25.083,5.511,36.016,15.165c-3.58-2.665-13.4-9.072-28.058-11.727c0,0,17.602,6.298,20.991,13.243c0,0-14.047-12.274-34.396-11.144c0,0,19.703,1.454,27.776,13.726c0,0-10.173-8.718-24.385-9.203c0,0,11.024,1.36,19.494,11.601c-9.913-6.712-20.365-10.639-29.045-10.639c-5.893,0-10.741,1.807-14.03,5.232C79.465,147.917,81.146,145.173,83.331,142.843z M118.489,157.708c-8.357,3.417-15.945,7.666-22.542,12.587c-4.598-7.569-7.205-15.135-7.194-21.555c1.139-0.181,2.339-0.273,3.598-0.273C100.122,148.467,109.458,151.857,118.489,157.708z M97.126,202.08c-9.08-8.507-15.83-18.385-19.008-27.816c-1.579-4.689-2.169-8.957-1.797-12.635c0.006-0.073,0.022-0.139,0.03-0.21c1.188,11.071,10.859,23.267,10.859,23.267c-7.591-12.597-7.106-28.744-7.106-28.744c1.131,11.627,7.426,18.57,7.426,18.57c-4.519-9.204-4.519-21.639-4.519-21.639c1.29,8.721,6.135,14.534,6.135,14.534c-3.876-9.529-2.749-18.318-2.749-18.318c0,0.06,0.004,0.123,0.006,0.182c0.136,6.773,2.898,14.644,7.673,22.461c-1.371,1.082-2.701,2.191-3.978,3.331c0.369,2.148,2.405,13.085,7.847,27.759C97.676,202.572,97.397,202.334,97.126,202.08z M110.326,253.691c0.092,1.745,0.72,3.337,1.865,4.763c-4.19-0.886-9.271-3.176-10.843-8.999c-2.605-9.645,4.262-18.152,7.494-21.499c-1.312,1.936-4.057,6.644-4.515,12.602c0,0,1.938-6.177,6.541-7.63c0,0-5.694,5.813-4.359,15.865c0,0,1.088-9.565,7.022-11.142c0,0-3.149,2.906-3.755,9.446c0,0,2.418-5.537,7.429-6.308c0.047,0.071,0.091,0.142,0.14,0.214C115.11,243.028,110.037,248.254,110.326,253.691z M168.275,284.676c-25.39-13.851-45.582-35.667-60.023-64.868c-10.083-20.384-14.099-38.262-15.167-43.713c18.533-15.943,45.829-25.062,75.19-25.062c29.359,0,56.655,9.119,75.19,25.062c-1.07,5.451-5.086,23.329-15.166,43.713C213.857,249.009,193.665,270.825,168.275,284.676z M219.206,241.004c0.048-0.072,0.093-0.143,0.14-0.214c5.01,0.771,7.427,6.308,7.427,6.308c-0.605-6.54-3.755-9.446-3.755-9.446c5.935,1.576,7.026,11.142,7.026,11.142c1.33-10.052-4.361-15.865-4.361-15.865c4.602,1.453,6.54,7.63,6.54,7.63c-0.458-5.958-3.204-10.666-4.511-12.602c3.23,3.347,10.098,11.854,7.49,21.499c-1.573,5.823-6.65,8.113-10.845,8.999c1.147-1.426,1.776-3.018,1.868-4.763C226.513,248.254,221.44,243.032,219.206,241.004z"/><path  d="M219.255,219.506c-0.008,0.013-0.018,0.023-0.025,0.034c1.658,1.122,3.155,2.211,4.469,3.228c0.203-0.387,0.407-0.771,0.609-1.161c-1.287-0.989-2.736-2.042-4.338-3.124L219.255,219.506z"/><path  d="M259.845,250.87c-0.501,0.551-0.453,1.404,0.1,1.902c0.549,0.497,1.402,0.451,1.902-0.102c0.498-0.555,0.451-1.403-0.102-1.902C261.192,250.273,260.343,250.315,259.845,250.87z"/><path  d="M210.35,229.422c2.593,1.501,4.916,3.025,6.951,4.485c0.228-0.364,0.451-0.733,0.678-1.099c-1.881-1.346-3.997-2.744-6.34-4.129C211.247,228.957,210.816,229.203,210.35,229.422z"/><path  d="M208.857,232.376c2.477,1.406,4.718,2.844,6.705,4.238c0.235-0.359,0.471-0.721,0.704-1.084c-1.898-1.33-4.018-2.696-6.352-4.04L208.857,232.376z"/><path  d="M255.405,255.551c-0.53,0.522-0.528,1.379-0.002,1.903c0.525,0.525,1.378,0.523,1.906-0.003c0.525-0.526,0.524-1.377-0.004-1.902C256.781,255.025,255.929,255.021,255.405,255.551z"/><path  d="M205.887,234.526c2.93,1.555,5.563,3.177,7.883,4.763c0.244-0.355,0.49-0.71,0.729-1.067c-2.177-1.486-4.62-3.005-7.32-4.471C206.794,234.023,206.357,234.284,205.887,234.526z"/><path  d="M50.583,265.412c-0.57,0.479-0.646,1.323-0.165,1.892c0.477,0.568,1.323,0.646,1.893,0.168c0.568-0.478,0.645-1.325,0.167-1.896C51.999,265.009,51.152,264.936,50.583,265.412z"/><path  d="M213.303,227.359c2.097,1.293,3.993,2.584,5.672,3.815c0.223-0.371,0.441-0.745,0.662-1.12c-1.579-1.152-3.337-2.354-5.273-3.56L213.303,227.359z"/><path  d="M217.036,221.982c1.916,1.248,3.632,2.472,5.138,3.618c0.21-0.381,0.418-0.763,0.626-1.144c-1.428-1.08-3.039-2.226-4.819-3.393C217.679,221.388,217.366,221.695,217.036,221.982z"/><path  d="M240.7,268.108c-0.606,0.434-0.737,1.279-0.3,1.881c0.437,0.601,1.28,0.731,1.883,0.296c0.602-0.438,0.732-1.278,0.294-1.882C242.143,267.805,241.303,267.668,240.7,268.108z"/><path  d="M231.718,275.624c-0.369-0.642-1.191-0.866-1.836-0.491c-0.648,0.369-0.867,1.195-0.492,1.84c0.369,0.644,1.194,0.86,1.839,0.491C231.873,277.09,232.091,276.268,231.718,275.624z"/><path  d="M250.724,259.991c-0.556,0.494-0.598,1.349-0.1,1.901c0.496,0.553,1.349,0.595,1.902,0.098c0.554-0.498,0.596-1.348,0.098-1.902C252.127,259.538,251.277,259.49,250.724,259.991z"/><path  d="M226.021,278.798c-0.337-0.661-1.146-0.928-1.81-0.587c-0.665,0.334-0.926,1.148-0.588,1.812c0.336,0.663,1.149,0.922,1.812,0.586C226.097,280.269,226.358,279.46,226.021,278.798z"/><path  d="M232.169,305.411c-0.673,0.315-0.96,1.115-0.649,1.787c0.314,0.674,1.11,0.969,1.783,0.649c0.674-0.315,0.969-1.109,0.655-1.787C233.642,305.388,232.843,305.096,232.169,305.411z"/><circle  cx="238.705" cy="303.686" r="1.344"/><path  d="M243.869,299.32c-0.645,0.373-0.862,1.195-0.492,1.837c0.372,0.646,1.191,0.869,1.834,0.492c0.643-0.373,0.868-1.19,0.494-1.836C245.332,299.169,244.511,298.947,243.869,299.32z"/><circle  cx="226.646" cy="309.309" r="1.344"/><path  d="M235.381,271.762c-0.625,0.402-0.801,1.24-0.396,1.863c0.405,0.623,1.241,0.798,1.865,0.394c0.624-0.406,0.798-1.238,0.394-1.861C236.838,271.535,236.007,271.354,235.381,271.762z"/><path  d="M246.875,288.496c-0.101-0.156-0.144-0.35-0.254-0.775l-2.562-10.179c-0.04-0.192-0.133-0.549,0.106-0.732l-0.176-0.272l-2.57,1.668l0.177,0.272c0.343-0.198,0.554-0.086,0.669,0.091c0.049,0.078,0.118,0.226,0.148,0.401l0.502,1.972l-3.505,2.271l-1.785-1.391c-0.146-0.097-0.23-0.181-0.293-0.279c-0.09-0.135-0.016-0.236,0.213-0.439l-0.178-0.273l-2.648,1.717l0.177,0.273c0.241-0.101,0.368-0.074,0.712,0.202l8.037,6.296c0.515,0.414,0.676,0.529,0.75,0.647c0.127,0.194,0.086,0.387-0.194,0.596l0.179,0.271l3.25-2.107l-0.177-0.271C247.08,288.641,246.952,288.615,246.875,288.496z M244.679,287.542l-3.935-3.258l2.591-1.68l1.385,4.914L244.679,287.542z"/><path  d="M220.637,294.736c-1.103,0.461-1.582,1.698-1.126,2.784c0.456,1.088,1.668,1.593,2.771,1.131c1.102-0.463,1.601-1.688,1.146-2.775C222.972,294.789,221.74,294.273,220.637,294.736z"/><path  d="M220.165,281.668c-0.303-0.677-1.096-0.984-1.777-0.68c-0.683,0.3-0.986,1.1-0.685,1.778c0.303,0.679,1.103,0.981,1.781,0.68C220.165,283.144,220.468,282.349,220.165,281.668z"/><path  d="M201.504,236.072c3.933,1.845,7.412,3.867,10.417,5.861c0.25-0.348,0.501-0.697,0.75-1.049c-2.708-1.803-5.801-3.625-9.255-5.324C202.738,235.785,202.081,235.961,201.504,236.072z"/><path  d="M214.02,223.948c2.485,1.521,4.684,3.037,6.58,4.456c0.215-0.376,0.43-0.754,0.642-1.132c-1.734-1.29-3.714-2.656-5.92-4.033C214.903,223.496,214.472,223.736,214.02,223.948z"/><path  d="M155.107,319c-0.74-0.064-1.39,0.483-1.458,1.224c-0.064,0.74,0.478,1.395,1.223,1.455c0.739,0.063,1.393-0.479,1.457-1.223C156.392,319.72,155.848,319.063,155.107,319z"/><path  d="M148.985,290.121c-0.732-0.118-1.425,0.386-1.539,1.119c-0.117,0.735,0.386,1.422,1.121,1.54c0.734,0.116,1.422-0.386,1.54-1.12C150.222,290.928,149.724,290.237,148.985,290.121z"/><circle  cx="142.364" cy="290.262" r="1.346"/><path  d="M148.551,318.282c-0.738-0.097-1.41,0.423-1.51,1.159c-0.097,0.737,0.416,1.413,1.156,1.507c0.737,0.096,1.414-0.417,1.511-1.158C149.802,319.056,149.287,318.377,148.551,318.282z"/><path  d="M161.688,319.432c-0.742-0.032-1.366,0.544-1.401,1.286c-0.033,0.743,0.536,1.371,1.283,1.399c0.742,0.032,1.371-0.538,1.403-1.285C163.002,320.093,162.43,319.463,161.688,319.432z"/><path  d="M162.212,302.818c0.392,0.026,0.522,0.175,0.572,0.459l0.324,0.021l0.191-2.777l-0.324-0.023c-0.089,0.273-0.237,0.403-0.632,0.377l-7.781-0.535l-0.021,0.324c0.254,0.017,0.45,0.193,0.42,0.635l-0.242,3.544c-0.022,0.325-0.235,0.378-0.483,0.267l-0.013,0.188l2.324,2.066l0.193-0.08c-0.23-0.738,1.01-1.188,1.938-1.123c1.365,0.093,2.415,1.096,2.319,2.485c-0.101,1.483-1.215,2.478-2.79,2.369c-1.762-0.122-3.233-1.059-2.693-2.141l-0.269-0.153l-1.771,2.389l0.263,0.249c0.143-0.037,0.26-0.073,0.422-0.063c0.254,0.018,0.647,0.392,1.297,0.785c0.646,0.394,1.572,0.806,2.823,0.893c2.781,0.192,4.753-1.443,4.931-4.038c0.145-2.107-1.179-4.176-3.842-4.356c-1.368-0.094-2.04,0.187-2.519,0.409l0.172-2.525L162.212,302.818z"/><path  d="M140.124,298.275c0.241,0.1,0.319,0.28,0.262,0.553c-0.104,0.501-0.426,0.79-0.789,0.714c-0.271-0.059-0.511-0.156-0.456-0.43l-0.318-0.064l-0.6,2.861l0.318,0.066c0.155-0.513,0.874-0.55,1.207-0.552l-1.599,7.633c-0.089,0.432-0.306,0.553-0.67,0.477l-0.066,0.318l3.271,0.685l0.068-0.317c-0.271-0.059-0.421-0.255-0.332-0.686l2.125-10.133c0.09-0.431,0.305-0.553,0.577-0.497l0.068-0.315l-3-0.63L140.124,298.275z"/><path  d="M130.184,285.606c-0.707-0.231-1.468,0.159-1.697,0.866c-0.229,0.706,0.159,1.464,0.867,1.694c0.707,0.229,1.464-0.158,1.695-0.865C131.277,286.597,130.894,285.837,130.184,285.606z"/><circle  cx="128.807" cy="315.723" r="1.345"/><circle  cx="135.27" cy="317.304" r="1.345"/><path  d="M155.103,293.642c0.741,0.076,1.4-0.459,1.48-1.199c0.074-0.736-0.459-1.4-1.2-1.479c-0.738-0.078-1.401,0.46-1.48,1.2C153.824,292.902,154.364,293.562,155.103,293.642z"/><path  d="M142.03,317.279c-0.73-0.13-1.426,0.36-1.558,1.092c-0.127,0.731,0.355,1.43,1.09,1.556c0.731,0.128,1.431-0.354,1.559-1.091C143.249,318.107,142.764,317.406,142.03,317.279z"/><path  d="M136.37,287.438c-0.719-0.193-1.457,0.236-1.649,0.953c-0.193,0.717,0.236,1.454,0.954,1.647c0.72,0.192,1.455-0.234,1.649-0.952C137.513,288.371,137.09,287.633,136.37,287.438z"/><path  d="M174.877,319.432c-0.743,0.032-1.315,0.661-1.285,1.404c0.033,0.742,0.656,1.317,1.399,1.281c0.741-0.032,1.32-0.655,1.286-1.402C176.244,319.977,175.619,319.397,174.877,319.432z"/><path  d="M188.014,318.282c-0.737,0.099-1.252,0.772-1.157,1.509c0.095,0.738,0.768,1.257,1.505,1.157c0.737-0.098,1.258-0.769,1.161-1.509C189.425,318.705,188.751,318.184,188.014,318.282z"/><circle  cx="194.765" cy="318.603" r="1.344"/><path  d="M187.964,292.781c0.736-0.117,1.234-0.806,1.12-1.541c-0.119-0.732-0.806-1.233-1.542-1.116c-0.736,0.112-1.236,0.807-1.121,1.541C186.538,292.4,187.229,292.897,187.964,292.781z"/><path  d="M181.457,319c-0.741,0.065-1.284,0.717-1.221,1.459c0.065,0.74,0.712,1.288,1.455,1.22c0.74-0.065,1.289-0.713,1.225-1.457C182.848,319.484,182.197,318.934,181.457,319z"/><path  d="M194.447,291.58c0.729-0.154,1.191-0.868,1.036-1.598c-0.157-0.725-0.867-1.19-1.596-1.034c-0.729,0.151-1.193,0.87-1.039,1.597C193.002,291.274,193.721,291.735,194.447,291.58z"/><path  d="M201.661,305.744c-0.295-1.409-1.221-2.331-2.645-2.555c0.96-0.628,1.388-1.879,1.159-2.971c-0.339-1.639-2.163-2.753-5.137-2.13c-2.752,0.572-3.963,2.391-3.611,4.072c0.204,0.98,1.142,1.944,2.147,2.114c-1.153,0.832-1.658,2.053-1.363,3.464c0.38,1.815,2.466,3.185,5.535,2.545C200.747,309.66,202.098,307.834,201.661,305.744z M193.719,301.779c-0.194-0.932,0.336-1.686,1.79-1.988c1.455-0.302,2.244,0.175,2.438,1.109c0.195,0.927-0.336,1.681-1.792,1.983C194.7,303.189,193.914,302.709,193.719,301.779z M197.278,308.39c-1.293,0.27-2.586-0.126-2.847-1.376c-0.263-1.252,0.764-2.129,2.06-2.397c1.298-0.27,2.588,0.125,2.849,1.372C199.6,307.238,198.574,308.118,197.278,308.39z"/><path  d="M163.089,292.884c0.038-0.74-0.53-1.375-1.276-1.415c-0.741-0.04-1.376,0.533-1.414,1.275c-0.039,0.744,0.534,1.374,1.276,1.414C162.419,294.195,163.049,293.627,163.089,292.884z"/><circle  cx="123.621" cy="284.709" r="1.346"/><path  d="M168.266,294.331c0.745,0,1.345-0.603,1.346-1.347c-0.003-0.742-0.603-1.345-1.35-1.345c-0.742-0.003-1.346,0.604-1.346,1.347S167.521,294.33,168.266,294.331z"/><path  d="M181.429,293.642c0.741-0.077,1.274-0.739,1.197-1.48c-0.079-0.737-0.738-1.274-1.48-1.196c-0.74,0.075-1.276,0.741-1.198,1.48C180.024,293.185,180.69,293.72,181.429,293.642z"/><path  d="M200.857,290.043c0.719-0.194,1.144-0.932,0.951-1.651c-0.194-0.716-0.93-1.143-1.65-0.949c-0.72,0.189-1.144,0.933-0.953,1.649C199.399,289.81,200.139,290.234,200.857,290.043z"/><path  d="M174.857,294.158c0.744-0.039,1.31-0.672,1.272-1.415c-0.041-0.741-0.67-1.312-1.415-1.271c-0.744,0.035-1.313,0.673-1.274,1.414C173.478,293.629,174.114,294.195,174.857,294.158z"/><path  d="M177.876,312.162c-0.021-0.277,0.35-0.999,0.485-1.381l3.384-8.839l-0.135-1.993l-0.327,0.023c-0.05,0.281-0.179,0.43-0.574,0.455l-7.225,0.491c-0.393,0.023-0.542-0.103-0.63-0.376l-0.324,0.021l0.195,2.895l0.322-0.019c0.044-0.399,0.174-0.55,0.568-0.574l5.698-0.386l-3.801,9.539c-0.137,0.36-0.233,0.646-0.672,0.721l0.024,0.327l3.519-0.24l-0.02-0.326C178.084,312.498,177.888,312.348,177.876,312.162z"/><path  d="M168.282,319.575c-0.743,0.001-1.342,0.604-1.344,1.347c0,0.743,0.598,1.346,1.342,1.343c0.742-0.001,1.347-0.598,1.347-1.346C169.626,320.179,169.025,319.574,168.282,319.575z"/><circle  cx="75.688" cy="251.763" r="1.347"/><path  d="M85.815,271.799l0.213-0.247l-6.345-5.512c-0.403-0.351-0.496-0.524-0.321-0.834l-0.245-0.214l-1.826,2.104l0.243,0.213c0.283-0.218,0.466-0.147,0.872,0.203l4.029,3.501l-2.192,2.524L78,271.591c-0.403-0.352-0.498-0.525-0.352-0.799l-0.245-0.215l-1.799,2.067l0.248,0.215c0.281-0.218,0.467-0.149,0.87,0.2l2.243,1.95l-1.98,2.278l-3.787-3.29c-0.402-0.347-0.496-0.524-0.35-0.797l-0.246-0.213l-1.796,2.066l0.243,0.213c0.281-0.215,0.467-0.145,0.87,0.204l6.135,5.329l0.213-0.244c-0.463-0.496-0.459-0.678-0.201-0.975l6.795-7.817C85.117,271.468,85.296,271.439,85.815,271.799z"/><circle  cx="80.176" cy="256.494" r="1.347"/><circle  cx="84.908" cy="260.983" r="1.347"/><path  d="M81.572,292.236c-0.608-0.423-1.445-0.273-1.872,0.332c-0.426,0.61-0.282,1.447,0.331,1.87c0.606,0.426,1.444,0.282,1.872-0.327C82.327,293.503,82.183,292.664,81.572,292.236z"/><circle  cx="86.334" cy="297.035" r="1.344"/><circle  cx="75.435" cy="289.404" r="1.344"/><path  d="M64.05,266.44l7.805-6.807c0.297-0.258,0.476-0.265,0.805,0.005l0.245-0.213l-2.075-2.38l-0.245,0.212c0.193,0.326,0.161,0.507-0.136,0.766l-6.051,5.279l-0.032-0.034c1.104-1.948,2.884-8.737,3.181-8.996c0.176-0.152,0.348-0.026,0.535,0.119l0.247-0.214l-2.229-2.557l-0.247,0.215c0.148,0.274,0.172,0.408-0.176,0.711l-7.806,6.806c-0.297,0.261-0.477,0.265-0.79,0.013l-0.244,0.214l2.074,2.378l0.245-0.214c-0.207-0.344-0.178-0.521,0.12-0.779l5.494-4.793l0.03,0.036c-0.635,0.862-2.701,7.99-2.998,8.252c-0.106,0.091-0.202,0.052-0.43-0.179l-0.247,0.215l2.518,2.886l0.244-0.214C63.725,266.876,63.753,266.698,64.05,266.44z"/><path  d="M59.485,275.302c-0.527,0.525-0.53,1.374,0,1.898c0.524,0.524,1.374,0.527,1.902,0.002c0.523-0.525,0.526-1.377,0-1.901C60.861,274.777,60.01,274.777,59.485,275.302z"/><circle  cx="92.023" cy="300.486" r="1.344"/><path  d="M54.925,270.453c-0.549,0.505-0.588,1.351-0.083,1.897c0.501,0.549,1.351,0.588,1.901,0.085c0.546-0.501,0.585-1.352,0.083-1.9C56.323,269.989,55.473,269.953,54.925,270.453z"/><path  d="M69.215,284.375c-0.478,0.571-0.407,1.418,0.166,1.894c0.57,0.478,1.416,0.406,1.896-0.164c0.475-0.57,0.403-1.417-0.167-1.895S69.693,283.809,69.215,284.375z"/><path  d="M64.251,279.944c-0.503,0.55-0.469,1.397,0.083,1.898c0.547,0.501,1.396,0.467,1.9-0.081c0.5-0.549,0.464-1.398-0.083-1.901C65.603,279.359,64.753,279.399,64.251,279.944z"/><path  d="M228.003,201.979c-0.004,0.007-0.006,0.014-0.01,0.021c1.518,1.11,2.813,2.134,3.872,3.013c0.167-0.422,0.335-0.845,0.496-1.263c-1.063-0.872-2.335-1.867-3.81-2.941L228.003,201.979z"/><circle  cx="116.117" cy="311.722" r="1.344"/><path  d="M122.824,312.578c-0.709-0.224-1.462,0.173-1.688,0.881c-0.223,0.71,0.165,1.465,0.877,1.684c0.708,0.223,1.463-0.163,1.688-0.877C123.923,313.558,123.533,312.801,122.824,312.578z"/><circle  cx="109.916" cy="309.31" r="1.345"/><circle  cx="117.596" cy="282.213" r="1.346"/><path  d="M116.701,295.065c-1.107-0.456-2.321,0.075-2.769,1.168c-0.451,1.088,0.046,2.305,1.149,2.756c1.104,0.457,2.329-0.051,2.778-1.143C118.308,296.759,117.804,295.521,116.701,295.065z"/><path  d="M106.649,275.128c-0.644-0.374-1.468-0.151-1.839,0.492s-0.15,1.465,0.494,1.839c0.646,0.372,1.466,0.149,1.839-0.494C107.512,276.322,107.295,275.502,106.649,275.128z"/><circle  cx="95.042" cy="269.19" r="1.345"/><path  d="M91.095,279.457c-0.936,1.44-0.741,2.677,0.401,3.86l-0.024,0.039c-1.208-0.399-2.491,0.125-3.136,1.117c-0.872,1.343-0.562,3.512,1.693,4.979l4.829,3.135l0.178-0.271c-0.41-0.35-0.43-0.53-0.217-0.859l5.641-8.683c0.214-0.331,0.388-0.386,0.874-0.151l0.178-0.274l-5.199-3.378C94.171,277.579,92.083,277.941,91.095,279.457z M93.429,289.333l-2.044-1.327c-1.227-0.794-1.569-1.546-1.028-2.385c0.545-0.836,1.37-0.827,2.595-0.028l2.046,1.326L93.429,289.333z M96.059,285.284l-1.966-1.275c-1.382-0.899-1.974-1.864-1.292-2.915c0.684-1.052,1.806-0.904,3.19-0.009l1.965,1.28L96.059,285.284z"/><circle  cx="89.868" cy="265.221" r="1.345"/><path  d="M98.478,302.493c-0.658-0.339-1.468-0.082-1.814,0.576c-0.343,0.658-0.091,1.47,0.572,1.811c0.66,0.344,1.47,0.092,1.814-0.57C99.391,303.65,99.139,302.839,98.478,302.493z"/><path  d="M101.149,271.756c-0.623-0.404-1.46-0.228-1.865,0.396c-0.405,0.624-0.224,1.456,0.399,1.863c0.625,0.405,1.457,0.227,1.863-0.398C101.948,272.995,101.773,272.163,101.149,271.756z"/><path  d="M104.394,305.412c-0.672-0.314-1.471-0.021-1.787,0.652c-0.313,0.674-0.027,1.473,0.649,1.783c0.673,0.315,1.474,0.029,1.789-0.648C105.356,306.526,105.069,305.728,104.394,305.412z"/><circle  cx="111.709" cy="279.406" r="1.346"/><path  d="M155.238,159.01c1.551-0.776,3.347-1.405,5.401-1.741c-4.787,0.288-9.328,0.841-13.626,1.589c0.69,0.266,1.303,0.603,1.84,0.999C150.921,159.527,153.048,159.241,155.238,159.01z"/><path  d="M161.669,186.673c0.575-0.036,1.152-0.063,1.733-0.089c0.161-0.484,0.292-0.928,0.391-1.311c-0.912,0.037-1.814,0.086-2.707,0.145l0.165,0.288C161.401,186.011,161.542,186.335,161.669,186.673z"/><path  d="M143.622,170.195c-9.332,2.019-17.195,4.954-23.419,7.871c0.277,0.328,0.574,0.67,0.88,1.018c5.997-2.787,13.512-5.575,22.392-7.532C143.52,171.112,143.568,170.659,143.622,170.195z"/><path  d="M159.737,183.286c1.474-0.115,2.973-0.2,4.497-0.256c0.066-0.434,0.12-0.867,0.161-1.301c-1.545,0.054-3.067,0.139-4.561,0.254c-0.137,0.357-0.253,0.575-0.276,0.613l-0.146,0.265c0.087,0.117,0.176,0.233,0.269,0.351C159.698,183.233,159.721,183.265,159.737,183.286z"/><path  d="M192.843,191.946c0.427,0,0.823,0.021,1.199,0.045c-3.495-0.919-7.2-1.687-11.107-2.25c0.007,0.494,0.032,0.931,0.068,1.316c2.381,0.35,4.689,0.771,6.914,1.261C191.089,192.002,192.097,191.946,192.843,191.946z"/><path  d="M184.731,194.101c0.316,0,0.795-0.064,1.465-0.284c-0.864-0.158-1.741-0.304-2.626-0.44c0.087,0.164,0.174,0.292,0.257,0.385C183.982,193.938,184.199,194.101,184.731,194.101z"/><path  d="M114.288,169.753l0.675,1.04c6.597-3.375,15.634-7.098,26.824-9.588l-0.888-1.113C130.252,162.534,121.34,166.136,114.288,169.753z"/><path  d="M118.039,175.352c0.238,0.315,0.505,0.665,0.805,1.046c6.453-3.114,14.845-6.337,24.96-8.489c0.006-0.464-0.012-0.901-0.047-1.313C133.3,168.799,124.651,172.139,118.039,175.352z"/><path  d="M116.103,172.544l0.69,1.063c0,0.003,0.012,0.02,0.018,0.028c6.675-3.326,15.625-6.881,26.586-9.207c-0.126-0.476-0.267-0.887-0.409-1.234C131.894,165.562,122.841,169.174,116.103,172.544z"/><path  d="M143.804,178.621c-0.144-0.392-0.254-0.808-0.337-1.248c-6.982,1.586-13.109,3.697-18.302,5.916c0.343,0.318,0.696,0.638,1.058,0.954C131.243,182.135,137.128,180.134,143.804,178.621z"/><path  d="M164.224,175.987c-0.07-0.388-0.15-0.763-0.246-1.123c-0.011-0.048-0.028-0.104-0.044-0.162c-1.646,0.063-3.257,0.161-4.843,0.289c0.255,0.422,0.464,0.839,0.632,1.245C161.196,176.124,162.697,176.04,164.224,175.987z"/><path  d="M160.996,171.372c-0.109,0-0.224,0.008-0.34,0.022c-0.861,0.112-1.461,0.677-1.889,1.396c1.367-0.112,2.759-0.202,4.17-0.267C162.47,171.881,161.836,171.372,160.996,171.372z"/><path  d="M200.771,190.384c-5.326-1.771-11.224-3.238-17.669-4.159c-0.042,0.457-0.078,0.886-0.104,1.29c5.77,0.827,11.089,2.1,15.949,3.634C199.564,190.916,200.173,190.661,200.771,190.384z"/><path  d="M164.509,179.496c0.001-0.435-0.012-0.865-0.037-1.29c-1.418,0.049-2.811,0.127-4.188,0.224c0.048,0.456,0.054,0.887,0.031,1.286C161.688,179.617,163.087,179.544,164.509,179.496z"/><path  d="M227.817,178.235c0.263-0.263,0.923-0.948,0.923-0.948c-1.509-0.939-3.155-1.91-4.932-2.883c0,0-0.003,1.122-0.01,1.472C225.229,176.674,226.569,177.464,227.817,178.235z"/><path  d="M230.132,175.842l0.943-0.977c-2.118-1.368-4.544-2.816-7.267-4.274l0.001,1.528C226.153,173.393,228.264,174.649,230.132,175.842z"/><path  d="M222.346,169.82c-11.372-5.861-29.923-12.781-54.124-12.781c-0.886,0-1.755,0.02-2.627,0.037c1.902,0.155,3.734,0.594,5.451,1.297c21.66,0.488,38.718,6.505,50.532,12.569L222.346,169.82z"/><path  d="M226.303,204.757c1.688,1.212,3.134,2.338,4.317,3.313c0.175-0.418,0.349-0.836,0.517-1.248c-1.147-0.934-2.517-1.991-4.09-3.12C226.818,204.061,226.568,204.413,226.303,204.757z"/><path  d="M223.554,179.627c0.598,0.338,1.178,0.675,1.743,1.009c0.343-0.3,0.688-0.616,1.034-0.942c-0.842-0.507-1.722-1.018-2.64-1.532C223.654,178.664,223.608,179.151,223.554,179.627z"/><path  d="M219.785,173.564l0.641-0.937c-10.174-5.104-25.571-10.757-45.23-11.874c0.565,0.434,1.11,0.897,1.628,1.399c18.538,1.316,33.11,6.678,42.863,11.551C219.744,173.626,219.781,173.572,219.785,173.564z"/><path  d="M201.001,315.992c-0.725,0.162-1.179,0.879-1.02,1.604c0.159,0.727,0.873,1.186,1.6,1.021c0.726-0.162,1.187-0.875,1.023-1.604C202.444,316.29,201.727,315.83,201.001,315.992z"/><path  d="M211.085,183.307c-7.73-3.317-17.047-6.215-27.833-7.674c0.061,0.436,0.111,0.877,0.154,1.323c10.264,1.421,19.169,4.154,26.611,7.295C210.382,183.938,210.738,183.622,211.085,183.307z"/><path  d="M204.81,188.159c-6.259-2.328-13.392-4.282-21.355-5.423c-0.029,0.426-0.07,0.856-0.115,1.286c7.436,1.07,14.138,2.858,20.066,4.993C203.882,188.742,204.35,188.453,204.81,188.159z"/><path  d="M208.154,185.781c-7.025-2.831-15.254-5.257-24.617-6.578c0.013,0.434,0.016,0.867,0.013,1.307c8.855,1.264,16.674,3.529,23.401,6.182C207.36,186.392,207.761,186.091,208.154,185.781z"/><path  d="M216.187,178.089c-8.695-4.078-20.535-8.183-35.05-9.79c0.206,0.446,0.398,0.901,0.58,1.367c13.45,1.577,24.694,5.345,33.535,9.469C215.578,178.777,215.891,178.428,216.187,178.089z"/><path  d="M213.728,180.753c-8.431-3.806-18.897-7.202-31.233-8.753c0.122,0.442,0.236,0.892,0.337,1.347c11.765,1.531,21.796,4.753,29.93,8.378C213.092,181.399,213.416,181.075,213.728,180.753z"/><path  d="M218.414,175.401c-9.359-4.556-22.743-9.354-39.491-10.853c0.334,0.448,0.645,0.917,0.944,1.396c15.417,1.522,28.077,5.878,37.683,10.534C217.871,176.087,218.159,175.727,218.414,175.401z"/><path  d="M155.321,103.471c-4.456,1.002-5.49,5.43-5.49,5.43C154.704,107.654,155.321,103.471,155.321,103.471z"/><path  d="M154.545,244.913c-2.199-0.644-5.09-0.181-5.09-0.181c1.666,1.351,2.925,2.165,3.85,2.532c0.75,0.296,1.744,0.572,2.44,0.384c-0.861-0.542-1.726-1.298-1.849-1.501c0,0,1.058-0.051,2.574,0.245C156.192,245.636,155.027,245.055,154.545,244.913z"/><path  d="M226.133,208.608c1.199,0.884,2.273,1.717,3.2,2.473c0.18-0.411,0.358-0.819,0.533-1.228c-0.904-0.73-1.935-1.524-3.074-2.362L226.133,208.608z"/><path  d="M213.393,285.969c0.695-0.268,1.041-1.044,0.774-1.741c-0.267-0.69-1.043-1.038-1.739-0.771c-0.698,0.264-1.042,1.047-0.776,1.741C211.918,285.891,212.699,286.235,213.393,285.969z"/><circle  cx="206.762" cy="286.89" r="1.347"/><circle  cx="207.755" cy="315.722" r="1.344"/><path  d="M213.74,312.578c-0.708,0.224-1.098,0.979-0.878,1.687c0.225,0.711,0.976,1.106,1.685,0.878c0.708-0.225,1.105-0.974,0.879-1.687C215.203,312.749,214.449,312.353,213.74,312.578z"/><path  d="M186.669,108.901c0,0-0.744-4.333-5.489-5.43C181.18,103.471,181.796,107.654,186.669,108.901z"/><path  d="M157.797,238.706c0.163,0.591,1.126,2.971,1.535,3.767c0.443,0.864,1.104,2.109,2.099,2.227c-0.331-1.438-0.724-2.56-0.724-2.56c0.737,0.533,1.464,1.262,1.935,1.922c0.006,0.008,0.011,0.019,0.017,0.026c0.287-0.673-0.07-1.791-0.85-2.772C160.974,240.266,158.902,239.027,157.797,238.706z"/><path  d="M142.01,192.063c0.011,0,0.017-0.002,0.028-0.003c0.484-0.066,1.149-0.159,2.152-0.162c1.01,0,1.915,0.122,2.752,0.313c1.117-0.238,2.253-0.457,3.407-0.661c-0.074-0.43-0.093-0.866-0.068-1.301C147.406,190.756,144.646,191.365,142.01,192.063z"/><path  d="M148.735,186.974c-4.747,0.894-9.16,2.073-13.234,3.429c0.613,0.273,1.236,0.521,1.868,0.748c3.916-1.235,8.139-2.296,12.66-3.096c-0.403-0.239-0.78-0.527-1.12-0.877C148.847,187.114,148.795,187.041,148.735,186.974z"/><path  d="M143.267,175.169c-0.004-0.427,0.006-0.871,0.028-1.33c-8.077,1.81-15.025,4.313-20.726,6.874c0.308,0.326,0.625,0.654,0.954,0.986C129,179.269,135.617,176.905,143.267,175.169z"/><path  d="M106.331,175.752c1.891-1.214,4.026-2.494,6.409-3.787v-1.402c-2.737,1.461-5.177,2.908-7.294,4.271L106.331,175.752z"/><path  d="M128.097,185.81c0.382,0.3,0.77,0.596,1.164,0.887c4.996-1.959,10.75-3.762,17.208-5.082c-0.542-0.256-1.022-0.593-1.434-1.012C138.778,181.963,133.124,183.782,128.097,185.81z"/><path  d="M112.979,179.469c-0.051-0.457-0.095-0.926-0.129-1.41c-0.94,0.526-1.843,1.049-2.706,1.566c0.333,0.313,0.664,0.623,0.991,0.911C111.73,180.183,112.346,179.827,112.979,179.469z"/><path  d="M131.432,188.188c0.462,0.295,0.931,0.578,1.407,0.851c4.448-1.603,9.341-3.011,14.663-4.069c-0.17-0.407-0.316-0.818-0.426-1.226C141.368,184.891,136.147,186.434,131.432,188.188z"/><path  d="M107.745,177.22c0,0,0.435,0.451,0.922,0.949c1.264-0.782,2.626-1.583,4.083-2.393c-0.011-0.699-0.011-1.474-0.011-1.474C110.938,175.289,109.271,176.271,107.745,177.22z"/><path  d="M182.586,246.147c-0.124,0.203-0.987,0.959-1.848,1.501c0.696,0.188,1.69-0.088,2.44-0.384c0.922-0.367,2.182-1.182,3.849-2.532c0,0-2.89-0.463-5.091,0.181c-0.481,0.142-1.65,0.723-1.923,1.479C181.527,246.097,182.586,246.147,182.586,246.147z"/><path  d="M183.971,253.005c0.684,0.438,1.744,0.685,2.665,0.613c2.294-0.178,4.643-2.102,4.643-2.102s-2.11,0.456-4.502,0.008c-1.599-0.301-3.037-0.683-3.417,0.051c1.679,0.692,2.954,0.873,2.954,0.873S185.369,252.862,183.971,253.005z"/><path  d="M166.815,242.755c0,0.4,0.034,1.461,0.449,2.106c0.4-1.648,1.026-2.974,1.026-2.974s0.579,1.237,0.99,2.791c0.362-0.599,0.482-1.413,0.482-1.761c0-2.799-1.473-5.326-1.473-5.326S166.815,239.983,166.815,242.755z"/><path  d="M174.673,241.315c-0.78,0.981-1.138,2.1-0.849,2.772c0.004-0.008,0.009-0.019,0.015-0.026c0.471-0.66,1.197-1.389,1.938-1.922c0,0-0.394,1.122-0.726,2.56c0.994-0.117,1.656-1.362,2.098-2.227c0.409-0.796,1.374-3.176,1.535-3.767C177.579,239.027,175.508,240.266,174.673,241.315z"/><path  d="M229.478,190.632c-2.804,2.798-6.635,4.726-11.143,4.845c4.829-3.364,10.222-8.2,11.332-15.975c-3.155,3.276-6.96,6.465-11.207,7.915c1.766-2.029,3.146-5.787,3.146-12.61c0,0-10.806,15.851-24.827,19.331c-2.065,0.514-4.552-0.771-7.925,0.938c-8.599,4.359-8.627-3.762-7.777-10.591c1.906-15.325-6.131-24.78-16.222-25.254c-8.618-0.402-13.368,4.94-14.927,7.101c-0.107-1.529-0.87-5.548-5.942-5.903c0,0,2.631,3.302,1.895,9.425c-0.734,6.122-0.846,9.761,2.915,10.135c0,0-0.228,9.044,6.541,5.978c0,0-1.944-0.191-2.341-2.382c-0.498-2.736,0.027-4.612,0.426-5.549c0.198,1.645,0.67,3.612,1.849,5.405c2.248,3.411,3.166,6.072,1.905,7.318c-1.26,1.247-2.528-0.03-2.424-0.537c0,0,1.425-0.313,1.003-1.359c-0.421-1.045-2.269-1.263-3.019,0.43c-0.6,1.345-0.278,3.48,1.842,4.336c2.212,0.892,4.686-0.449,5.333-2.641c0.64-2.165-0.588-4.662-1.963-6.418c-1.659-2.121-2.816-4.142-3.647-6.974c0.85,0.367,2.467,1.373,3.337,3.928c0,0,1.87-3.362-1.715-7.026c0,0-0.021-0.085-0.051-0.23c0.397-1.726,1.508-4.671,4.503-5.059c3.169-0.408,5.014,2.318,5.737,5.1c0.806,3.099,0.835,7.259-0.1,11.183c-0.71,2.985-4.109,12.973-11.428,11.975c-3.52-0.479-5.892-3.38-10.387-3.364c-2.209,0.008-2.313,0.495-4.425,0.036c-14.282-3.1-24.827-19.331-24.827-19.331c0,6.823,1.379,10.581,3.146,12.61c-4.249-1.45-8.051-4.639-11.206-7.915c1.111,7.774,6.502,12.61,11.331,15.975c-4.506-0.119-8.335-2.047-11.144-4.845c1.418,6.429,6.958,10.804,12.484,12.209c-2.54,0.674-6.709-0.649-9.01-1.794c2.261,4.846,7.485,7.8,12.3,9.167c-2.992,1.1-6.892-0.114-9.526-1.021c3.352,5.69,7.801,7.52,15.874,8.407c-2.501,1.777-7.393,1.204-10.091,0.647c3.022,4.335,8.168,5.779,14.75,4.511c-1.673,2.036-4.845,2.953-7.976,3.898c2.705,2.205,8.44,2.252,12.688,0.633c-0.558,1.904-4.348,4.039-8.213,4.44c2.889,2.424,10.066,2.309,13.702-0.16c-0.629,2.812-3.648,3.793-6.359,5.055c3.217,0.794,8.269,0.3,11.452-0.965c0.21,1.472,0.722,2.952,1.734,4.228c-1.043-0.039-1.976,0.03-2.883,0.099c-2.085,0.158-3.891,0.296-6.736-0.871l-1.344-0.549l0.365,1.404c0.074,0.276,1.526,5.526,8.006,8.673c-1.974,0.037-4.923-0.425-7.924-2.788l-1.399-1.104l0.23,1.768c0.014,0.103,1.379,9.803,10.151,11.072c0.539,1.254,1.6,1.987,2.479,2.334c-0.193,2.993,1.749,4.507,3.565,4.895c1.739,0.371,3.44-0.06,4.914-1.25c0.222-0.18,0.511-0.45,0.794-0.75c0.735,1.502,2.504,3.72,6.549,3.72c0.143,0,0.287-0.002,0.436-0.011c3.014-0.113,5.095-1.931,6.25-3.768c1.041,1.331,2.852,2.217,4.994,2.26c0.057,0.003,0.111,0.005,0.166,0.005c3.042,0,5.304-1.776,6.063-4.777c0.232-0.915,0.306-1.759,0.241-2.534c10.037-0.379,11.55-11.085,11.563-11.195l0.231-1.768l-1.4,1.104c-3.001,2.363-5.949,2.825-7.922,2.788c6.481-3.146,7.932-8.396,8.004-8.673l0.367-1.404l-1.345,0.549c-2.847,1.167-4.649,1.029-6.736,0.871c-0.908-0.068-1.839-0.138-2.883-0.099c1.012-1.275,1.523-2.756,1.736-4.228c3.179,1.265,8.231,1.759,11.451,0.965c-2.71-1.262-5.731-2.243-6.362-5.055c3.638,2.469,10.814,2.584,13.703,0.16c-3.864-0.401-7.655-2.536-8.211-4.44c4.246,1.619,9.982,1.572,12.691-0.633c-3.136-0.945-6.308-1.862-7.979-3.898c6.579,1.269,11.726-0.176,14.746-4.511c-2.697,0.557-7.588,1.13-10.093-0.647c8.076-0.888,12.525-2.717,15.878-8.407c-2.634,0.907-6.533,2.121-9.525,1.021c4.814-1.367,10.041-4.321,12.302-9.167c-2.302,1.145-6.474,2.468-9.013,1.794C222.52,201.436,228.063,197.061,229.478,190.632z M149.698,178.517c-3.683-2.429-1.07-5.962-1.07-5.962C151.743,175.896,149.698,178.517,149.698,178.517z M160.055,198.849c0,0-1.917,5.249-0.014,7.633c4.818-4.345,5.196-7.469,5.196-7.469s-0.199,4.435,3.296,7.379c3.328-3.146,2.997-7.513,2.997-7.513s1.313,3.57,5.6,7.314c1.705-2.606-0.526-7.404-0.526-7.404c4.442,4.441,0.973,9.77,0.973,9.77s-3.874-2.008-5.333-6.08c-0.182,4.205-3.638,6.454-3.638,6.454s-3.375-1.747-3.938-6.055c-1.916,4.362-4.982,6.329-4.982,6.329S156.099,204.323,160.055,198.849z M157.051,208.329c-0.606,3.407,1.326,5.973,2.196,6.928c4.221-3.622,4.739-7.102,4.739-7.102s0.159,3.241,4.412,7.095c4.531-3.615,4.636-7.208,4.636-7.208s1.359,4.478,4.732,7.08c0.913-1.023,3.009-3.8,2.39-7.098c0,0,2.579,5.013-1.832,8.76l-0.4,0.371c0,0-3.33-1.641-4.66-5.83c-1.388,4.431-4.858,6.279-4.858,6.279s-3.263-1.516-4.584-5.931c-1.452,3.93-4.661,5.831-4.661,5.831s-0.146-0.082-0.405-0.356C154.454,212.536,157.051,208.329,157.051,208.329z M175.792,224.483l-0.39,0.247c0,0-1.949-0.844-2.697-4.635c-1.485,3.711-4.423,5.133-4.423,5.133s-2.85-1.261-4.197-4.824c-0.913,3.43-2.75,4.4-2.75,4.4l-0.396-0.243c-3.794-3.325-3.935-7.723-3.935-7.723s1.915,4.592,4.15,6.148c2.755-3.021,2.92-6.203,2.92-6.203s0.577,3.275,4.165,6.272c3.814-2.974,4.554-6.339,4.554-6.339s-0.004,2.602,2.772,6.261c3.19-1.979,4.546-6.264,4.546-6.264S180.344,220.893,175.792,224.483z M178.489,224.524c-1.295,5.208-5.581,7.938-5.581,7.938l-0.343-0.535c-1.978-4.391-0.693-7.609-0.693-7.609s0.22,4.123,1.486,5.657C176.129,228.441,178.489,224.524,178.489,224.524z M163.978,231.972l-0.337,0.591c0,0-3.847-2.789-5.286-8.063c0,0,2.322,3.866,4.79,5.394c1.248-2.373,1.618-5.569,1.618-5.569S165.821,228.14,163.978,231.972z M127.836,193.764c0,0,2.527,6.055,19.966,8.961c0,0-18.689,1.199-21.853-9.953L127.836,193.764z M127.897,199.597c0,0,4.565,7.407,19.341,8.216c0,0-17.303,2.517-21.178-9.043L127.897,199.597z M127.514,205.956l1.696,0.403c0,0,4.785,6.539,18.512,5.894C147.722,212.253,132.153,216.309,127.514,205.956z M129.613,212.415l2.099,0.484c0,0,4.141,5.247,16.979,3.875C148.691,216.774,135.418,221.864,129.613,212.415z M134.133,219.279l2.261,0.401c0,0,5.755,3.473,13.912,1.372C150.307,221.053,140.027,226.375,134.133,219.279z M139.544,225.172l2.018,0.13c0,0,4.466,2.454,10.602,0.032C152.164,225.334,146.081,231.158,139.544,225.172z M184.145,259.89c-0.857,3.393-3.632,3.697-4.789,3.68c-2.003-0.041-3.753-1.038-4.226-2.3c0.532-1.175,0.21-3.679,0.21-3.679s-0.041,2.181-2.099,4.442c-1.056,1.158-2.93,2.958-5.214,3.045c-5.18,0.201-6.657-4.904-6.657-4.904s-1.936,3.998-5.677,3.225c-0.48-0.1-2.841-0.772-2.363-3.879l0.104-0.68l-0.672-0.143c-0.102-0.02-2.447-0.547-2.311-3.109c0.07-1.301,0.492-2.227,1.291-2.827c1.348-1.014,3.413-0.838,4.266-0.709c-0.006,1.383,0.963,2.714,0.963,2.714c0-0.047,0.029-6.405,4.24-6.984c5.852-0.808,6.997,4.413,6.997,4.413s1.645-5.96,7.476-4.508c4.422,1.104,3.119,6.442,3.119,6.442s3.239-0.413,4.889,1.889C184.383,256.981,184.553,258.272,184.145,259.89z M183.274,240.182c-3.896,0.944-5.932,5.061-5.932,5.061s3.182-3.222,6.864-3.767c1.622-0.241,2.949-0.138,4.236-0.042c1.726,0.132,3.5,0.268,5.858-0.428c-2.402,6.07-12.401,8.681-12.401,8.681c1.2-0.207,8.781,1.334,13.621-1.601c-0.842,2.827-3.314,8.065-10.048,8.181c-0.157-0.401-0.359-0.772-0.619-1.118c-1.226-1.64-3.28-2.181-4.396-2.357c0.108-2.12-0.672-5.422-4.37-6.501c-4.141-1.203-6.688,1.245-7.804,2.744c-0.998-1.299-3.236-3.216-7.52-2.604c-2.614,0.376-3.9,2.31-4.459,4.195c-1.012-0.163-3.602-0.403-5.432,0.97c-0.281,0.209-0.531,0.448-0.75,0.715c-0.898,0.084-2.467,0.101-4.438-0.43c0,0,1.885,1.828,3.589,2.041c-0.149,0.484-0.246,1.012-0.275,1.588c-0.012,0.188-0.009,0.365,0,0.541c-5.182-1.027-7.222-5.447-7.97-7.965c4.841,2.935,12.418,1.394,13.619,1.601c0,0-10.47-2.527-12.399-8.681c2.358,0.695,4.132,0.56,5.856,0.428c1.287-0.096,2.618-0.199,4.236,0.042c3.685,0.545,6.865,3.767,6.865,3.767s-2.035-4.116-5.931-5.061c-3.383-2.467-2.967-7.097-2.397-9.693c2.894,3.91,9.802,1.77,12.51,8.798c0.262,2.218,1.379,3.993,1.379,3.993s-0.481-1.634-0.302-4.179c0.425-5.995,2.532-10.15,3.8-11.928c1.199,1.728,3.36,6.016,3.738,11.559c0.242,2.639-0.24,4.548-0.24,4.548s0.526-0.844,0.957-2.19c0.167-0.531,0.422-1.803,0.422-1.803c2.252-6.637,9.768-5.048,12.53-8.798C186.24,233.085,186.658,237.715,183.274,240.182z M184.299,225.334c6.137,2.422,10.6-0.032,10.6-0.032l2.018-0.13C190.384,231.167,184.299,225.334,184.299,225.334z M186.156,221.053c8.155,2.101,13.912-1.372,13.912-1.372l2.261-0.401C196.53,226.317,186.156,221.053,186.156,221.053z M187.771,216.774c12.838,1.372,16.979-3.875,16.979-3.875l2.099-0.484C200.849,221.832,187.771,216.774,187.771,216.774z M188.739,212.253c13.727,0.646,18.515-5.894,18.515-5.894l1.695-0.403C204.371,216.251,188.739,212.253,188.739,212.253z M189.224,207.813c14.778-0.809,19.341-8.216,19.341-8.216l1.837-0.827C206.431,210.403,189.224,207.813,189.224,207.813z M188.66,202.725c17.439-2.906,19.966-8.961,19.966-8.961l1.887-0.992C207.327,203.924,188.66,202.725,188.66,202.725z"/><path  d="M185.344,110.825c-1.971-0.855-5.4-3.503-7.282-8.263c-1.981-0.498-5.752-1.295-9.859-1.295c-4.241,0-9.662,1.127-9.737,1.308c-1.944,4.659-5.337,7.395-7.309,8.25c0,0.729,0,1.226,0,1.304c0,15.851,9.023,27.696,17.092,27.696c8.07,0,17.097-11.845,17.097-27.696C185.346,112.052,185.344,111.556,185.344,110.825z M170.022,125.375c0.667-0.464,1.839-1.221,2.35-0.693c-0.127,1.207-2.211,1.816-3.548,1.414C168.721,126.065,169.368,125.833,170.022,125.375z M167.788,126.094c-1.334,0.396-3.422-0.224-3.554-1.429c0.51-0.523,1.686,0.236,2.354,0.703C167.241,125.828,167.891,126.065,167.788,126.094z M158.149,108.874c1.322-0.051,2.438,0.302,3.763,0.607c1.941,0.448,3.917,1.173,3.547,2.15c-0.37,0.979-3.516-0.801-3.516-0.801c-1.981-0.98-5.459-1.511-7.586-0.533C154.914,109.366,156.178,108.952,158.149,108.874z M155.074,114.583c0,0,0.104-0.368,0.229-0.679c0.745-1.486,2.697-2.457,4.983-2.211c0.218,0.024,0.48,0.101,0.732,0.146c1.242,0.299,1.89,0.807,2.093,1.024c0.477,0.808,1.062,1.644,1.291,2.332c-0.484,0.214-0.738-0.524-0.963-0.862c-0.582-0.676-0.805-1.124-1.718-1.259c0.026,0.554,0.026,1.259-0.384,1.66c0.565,0.136,0.925-0.049,1.628,0c-0.339,0.561-1.242,0.594-1.916,0.646C159.105,115.52,156.763,115.138,155.074,114.583z M168.326,133.951c-1.414,0-2.641-1.062-2.641-1.062l0.244-0.187c1.448,0.403,3.266,0.464,4.723,0.078l0.202,0.141C170.854,132.921,169.738,133.951,168.326,133.951z M168.272,131.126c-2.161,0-6.582-0.35-6.582-0.701c1.55-0.316,1.497-0.338,2.833-1.052c1.353-0.72,2.491-0.691,3.768-0.028c1.27-0.663,2.408-0.691,3.761,0.028c1.34,0.714,1.283,0.736,2.838,1.052C174.891,130.776,170.431,131.126,168.272,131.126z M175.603,115.378c-0.675-0.051-1.576-0.084-1.916-0.646c0.704-0.049,1.064,0.136,1.628,0c-0.41-0.4-0.41-1.106-0.383-1.66c-0.914,0.136-1.138,0.583-1.718,1.259c-0.226,0.338-0.479,1.076-0.964,0.862c0.231-0.688,0.815-1.524,1.29-2.332c0.205-0.217,0.852-0.725,2.094-1.024c0.253-0.045,0.512-0.122,0.733-0.146c2.285-0.246,4.24,0.725,4.981,2.211c0.126,0.312,0.229,0.679,0.229,0.679C179.888,115.138,177.549,115.52,175.603,115.378z M174.709,110.831c0,0-3.146,1.78-3.517,0.801c-0.37-0.978,1.606-1.703,3.548-2.15c1.324-0.305,2.44-0.658,3.762-0.607c1.971,0.078,3.235,0.492,3.792,1.424C180.167,109.319,176.688,109.85,174.709,110.831z"/><path  d="M176.696,112.843c-0.213-0.092-0.474-0.169-0.612,0.015c-0.141,0.184,0.016,0.415,0.255,0.552c0.12,0.073,0.435,0.038,0.549-0.109C177,113.149,176.815,112.894,176.696,112.843z"/><path  d="M178.379,113.258c0.103,0.622-0.168,0.883-0.289,1.29C179.396,115.347,180.382,113.073,178.379,113.258z"/><path  d="M160.568,112.858c-0.137-0.184-0.399-0.107-0.611-0.015c-0.121,0.051-0.306,0.306-0.194,0.457c0.117,0.147,0.433,0.182,0.553,0.109C160.553,113.273,160.708,113.042,160.568,112.858z"/><path  d="M158.272,113.258c-2.003-0.186-1.017,2.088,0.288,1.29C158.44,114.141,158.168,113.881,158.272,113.258z"/></g></svg>